<?plantuml 1.2026.1beta5?><svg xmlns="http://www.w3.org/2000/svg" xmlns:xlink="http://www.w3.org/1999/xlink" contentStyleType="text/css" data-diagram-type="CLASS" height="640px" preserveAspectRatio="none" style="width:2745px;height:640px;background:#FEFEFE;" version="1.1" viewBox="0 0 2745 640" width="2745px" zoomAndPan="magnify"><title>ActiveContext - Context Graph Structure</title><defs/><g><rect fill="#FEFEFE" height="640" style="stroke:none;stroke-width:1;" width="2745" x="0" y="0"/><g class="title" data-source-line="4"><text fill="#000000" font-family="Verdana" font-size="22" font-weight="bold" lengthAdjust="spacing" textLength="504.3135" x="1115.8433" y="35.4209">ActiveContext - Context Graph Structure</text></g><!--cluster Graph--><g class="cluster" data-qualified-name="Graph" data-source-line="6" id="ent0002"><path d="M13.5,74.0594 L175.7188,74.0594 A3.75,3.75 0 0 1 178.2188,76.5594 L185.2188,96.3563 L2139.5,96.3563 A2.5,2.5 0 0 1 2142,98.8563 L2142,539.1594 A2.5,2.5 0 0 1 2139.5,541.6594 L13.5,541.6594 A2.5,2.5 0 0 1 11,539.1594 L11,76.5594 A2.5,2.5 0 0 1 13.5,74.0594" fill="#FFFFFF" style="stroke:#000000;stroke-width:1;"/><line style="stroke:#000000;stroke-width:1;" x1="11" x2="185.2188" y1="96.3563" y2="96.3563"/><text fill="#000000" font-family="Verdana" font-size="14" font-weight="bold" lengthAdjust="spacing" textLength="161.2188" x="15" y="89.0545">ContextGraph (DAG)</text></g><!--cluster Ops--><g class="cluster" data-qualified-name="Ops" data-source-line="112" id="ent0024"><path d="M2458.5,57.6094 L2599.3838,57.6094 A3.75,3.75 0 0 1 2601.8838,60.1094 L2608.8838,79.9063 L2735.5,79.9063 A2.5,2.5 0 0 1 2738,82.4063 L2738,329.3794 A2.5,2.5 0 0 1 2735.5,331.8794 L2458.5,331.8794 A2.5,2.5 0 0 1 2456,329.3794 L2456,60.1094 A2.5,2.5 0 0 1 2458.5,57.6094" fill="#FFFFFF" style="stroke:#000000;stroke-width:1;"/><line style="stroke:#000000;stroke-width:1;" x1="2456" x2="2608.8838" y1="79.9063" y2="79.9063"/><text fill="#000000" font-family="Verdana" font-size="14" font-weight="bold" lengthAdjust="spacing" textLength="139.8838" x="2460" y="72.6045">Graph Operations</text></g><!--class ContextNode--><g class="entity" data-qualified-name="Graph.ContextNode" data-source-line="8" id="ent0003"><rect fill="#FFFFFF" height="174.375" rx="2.5" ry="2.5" style="stroke:#000000;stroke-width:1;" width="161.0059" x="977.5" y="117.0594"/><ellipse cx="1009.1196" cy="131.0594" fill="#FFFFFF" rx="9" ry="9" style="stroke:#000000;stroke-width:1;"/><path d="M1009.229,126.4031 L1008.0728,131.4813 L1010.4009,131.4813 L1009.229,126.4031 Z M1007.7446,124.1688 L1010.729,124.1688 L1014.0884,136.5594 L1011.6353,136.5594 L1010.8696,133.4969 L1007.5884,133.4969 L1006.8384,136.5594 L1004.4009,136.5594 L1007.7446,124.1688 Z " fill="#000000"/><text fill="#000000" font-family="Verdana" font-size="14" font-style="italic" lengthAdjust="spacing" textLength="91.6289" x="1025.2573" y="135.9061">ContextNode</text><line style="stroke:#000000;stroke-width:1;" x1="978.5" x2="1137.5059" y1="145.0594" y2="145.0594"/><g data-visibility-modifier="PUBLIC_FIELD"><ellipse cx="988.5" cy="158.7078" fill="none" rx="3" ry="3" style="stroke:#000000;stroke-width:1;"/></g><text fill="#000000" font-family="Verdana" font-size="14" lengthAdjust="spacing" textLength="82.4209" x="995.5" y="162.0545">node_id: str</text><g data-visibility-modifier="PUBLIC_FIELD"><ellipse cx="988.5" cy="175.0047" fill="none" rx="3" ry="3" style="stroke:#000000;stroke-width:1;"/></g><text fill="#000000" font-family="Verdana" font-size="14" lengthAdjust="spacing" textLength="97.1934" x="995.5" y="178.3514">display_id: str</text><g data-visibility-modifier="PUBLIC_FIELD"><ellipse cx="988.5" cy="191.3016" fill="none" rx="3" ry="3" style="stroke:#000000;stroke-width:1;"/></g><text fill="#000000" font-family="Verdana" font-size="14" lengthAdjust="spacing" textLength="118.2275" x="995.5" y="194.6482">state: NodeState</text><g data-visibility-modifier="PUBLIC_FIELD"><ellipse cx="988.5" cy="207.5984" fill="none" rx="3" ry="3" style="stroke:#000000;stroke-width:1;"/></g><text fill="#000000" font-family="Verdana" font-size="14" lengthAdjust="spacing" textLength="74.3613" x="995.5" y="210.9451">tokens: int</text><g data-visibility-modifier="PUBLIC_FIELD"><ellipse cx="988.5" cy="223.8953" fill="none" rx="3" ry="3" style="stroke:#000000;stroke-width:1;"/></g><text fill="#000000" font-family="Verdana" font-size="14" lengthAdjust="spacing" textLength="137.0059" x="995.5" y="227.242">child_order: list[str]</text><line style="stroke:#000000;stroke-width:1;" x1="978.5" x2="1137.5059" y1="234.5438" y2="234.5438"/><g data-visibility-modifier="PUBLIC_METHOD"><ellipse cx="988.5" cy="248.1922" fill="#FFFFFF" rx="3" ry="3" style="stroke:#000000;stroke-width:1;"/></g><text fill="#000000" font-family="Verdana" font-size="14" lengthAdjust="spacing" textLength="133.6494" x="995.5" y="251.5389">Render(cwd) -&gt; str</text><g data-visibility-modifier="PUBLIC_METHOD"><ellipse cx="988.5" cy="264.4891" fill="#FFFFFF" rx="3" ry="3" style="stroke:#000000;stroke-width:1;"/></g><text fill="#000000" font-family="Verdana" font-size="14" lengthAdjust="spacing" textLength="132.4736" x="995.5" y="267.8357">GetDigest() -&gt; dict</text><g data-visibility-modifier="PUBLIC_METHOD"><ellipse cx="988.5" cy="280.7859" fill="#FFFFFF" rx="3" ry="3" style="stroke:#000000;stroke-width:1;"/></g><text fill="#000000" font-family="Verdana" font-size="14" lengthAdjust="spacing" textLength="94.7598" x="995.5" y="284.1326">Tick() -&gt; bool</text></g><!--class TextNode--><g class="entity" data-qualified-name="Graph.TextNode" data-source-line="20" id="ent0004"><rect fill="#FFFFFF" height="141.7813" rx="2.5" ry="2.5" style="stroke:#000000;stroke-width:1;" width="153.5859" x="35.21" y="375.8794"/><ellipse cx="74.5142" cy="389.8794" fill="#FFFFFF" rx="9" ry="9" style="stroke:#000000;stroke-width:1;"/><path d="M77.4829,395.52 Q76.9048,395.8169 76.2642,395.9575 Q75.6236,396.1138 74.9204,396.1138 Q72.4204,396.1138 71.0923,394.4731 Q69.7798,392.8169 69.7798,389.6919 Q69.7798,386.5669 71.0923,384.9106 Q72.4204,383.2544 74.9204,383.2544 Q75.6236,383.2544 76.2642,383.4106 Q76.9204,383.5669 77.4829,383.8638 L77.4829,386.5825 Q76.8579,386.0044 76.2642,385.7388 Q75.6704,385.4575 75.0454,385.4575 Q73.7017,385.4575 73.0142,386.5356 Q72.3267,387.5981 72.3267,389.6919 Q72.3267,391.7856 73.0142,392.8638 Q73.7017,393.9263 75.0454,393.9263 Q75.6704,393.9263 76.2642,393.6606 Q76.8579,393.3794 77.4829,392.8013 L77.4829,395.52 Z " fill="#000000"/><text fill="#000000" font-family="Verdana" font-size="14" lengthAdjust="spacing" textLength="67.4775" x="92.0142" y="394.7261">TextNode</text><line style="stroke:#000000;stroke-width:1;" x1="36.21" x2="187.7959" y1="403.8794" y2="403.8794"/><g data-visibility-modifier="PUBLIC_FIELD"><ellipse cx="46.21" cy="417.5278" fill="none" rx="3" ry="3" style="stroke:#000000;stroke-width:1;"/></g><text fill="#000000" font-family="Verdana" font-size="14" lengthAdjust="spacing" textLength="59.5342" x="53.21" y="420.8745">path: str</text><g data-visibility-modifier="PUBLIC_FIELD"><ellipse cx="46.21" cy="433.8247" fill="none" rx="3" ry="3" style="stroke:#000000;stroke-width:1;"/></g><text fill="#000000" font-family="Verdana" font-size="14" lengthAdjust="spacing" textLength="52.4521" x="53.21" y="437.1714">pos: str</text><g data-visibility-modifier="PUBLIC_FIELD"><ellipse cx="46.21" cy="450.1216" fill="none" rx="3" ry="3" style="stroke:#000000;stroke-width:1;"/></g><text fill="#000000" font-family="Verdana" font-size="14" lengthAdjust="spacing" textLength="85.8252" x="53.21" y="453.4682">end_pos: str</text><g data-visibility-modifier="PUBLIC_FIELD"><ellipse cx="46.21" cy="466.4184" fill="none" rx="3" ry="3" style="stroke:#000000;stroke-width:1;"/></g><text fill="#000000" font-family="Verdana" font-size="14" lengthAdjust="spacing" textLength="81.3066" x="53.21" y="469.7651">content: str</text><line style="stroke:#000000;stroke-width:1;" x1="36.21" x2="187.7959" y1="477.0669" y2="477.0669"/><text fill="#000000" font-family="Verdana" font-size="14" lengthAdjust="spacing" textLength="141.5859" x="41.21" y="494.062">Renders file content</text><text fill="#000000" font-family="Verdana" font-size="14" lengthAdjust="spacing" textLength="125.8018" x="41.21" y="510.3589">with line numbers</text></g><!--class GroupNode--><g class="entity" data-qualified-name="Graph.GroupNode" data-source-line="30" id="ent0005"><rect fill="#FFFFFF" height="109.1875" rx="2.5" ry="2.5" style="stroke:#000000;stroke-width:1;" width="162.6846" x="223.66" y="392.1794"/><ellipse cx="261.5184" cy="406.1794" fill="#FFFFFF" rx="9" ry="9" style="stroke:#000000;stroke-width:1;"/><path d="M264.4871,411.82 Q263.909,412.1169 263.2684,412.2575 Q262.6278,412.4138 261.9246,412.4138 Q259.4246,412.4138 258.0965,410.7731 Q256.784,409.1169 256.784,405.9919 Q256.784,402.8669 258.0965,401.2106 Q259.4246,399.5544 261.9246,399.5544 Q262.6278,399.5544 263.2684,399.7106 Q263.9246,399.8669 264.4871,400.1638 L264.4871,402.8825 Q263.8621,402.3044 263.2684,402.0388 Q262.6746,401.7575 262.0496,401.7575 Q260.7059,401.7575 260.0184,402.8356 Q259.3309,403.8981 259.3309,405.9919 Q259.3309,408.0856 260.0184,409.1638 Q260.7059,410.2263 262.0496,410.2263 Q262.6746,410.2263 263.2684,409.9606 Q263.8621,409.6794 264.4871,409.1013 L264.4871,411.82 Z " fill="#000000"/><text fill="#000000" font-family="Verdana" font-size="14" lengthAdjust="spacing" textLength="79.4678" x="279.0184" y="411.0261">GroupNode</text><line style="stroke:#000000;stroke-width:1;" x1="224.66" x2="385.3446" y1="420.1794" y2="420.1794"/><g data-visibility-modifier="PUBLIC_FIELD"><ellipse cx="234.66" cy="433.8278" fill="none" rx="3" ry="3" style="stroke:#000000;stroke-width:1;"/></g><text fill="#000000" font-family="Verdana" font-size="14" lengthAdjust="spacing" textLength="93.7686" x="241.66" y="437.1745">summary: str</text><g data-visibility-modifier="PUBLIC_FIELD"><ellipse cx="234.66" cy="450.1247" fill="none" rx="3" ry="3" style="stroke:#000000;stroke-width:1;"/></g><text fill="#000000" font-family="Verdana" font-size="14" lengthAdjust="spacing" textLength="125.6309" x="241.66" y="453.4714">members: list[str]</text><line style="stroke:#000000;stroke-width:1;" x1="224.66" x2="385.3446" y1="460.7731" y2="460.7731"/><text fill="#000000" font-family="Verdana" font-size="14" lengthAdjust="spacing" textLength="150.6846" x="229.66" y="477.7682">Header only; children</text><text fill="#000000" font-family="Verdana" font-size="14" lengthAdjust="spacing" textLength="137.8193" x="229.66" y="494.0651">rendered by engine</text></g><!--class MessageNode--><g class="entity" data-qualified-name="Graph.MessageNode" data-source-line="38" id="ent0006"><rect fill="#FFFFFF" height="125.4844" rx="2.5" ry="2.5" style="stroke:#000000;stroke-width:1;" width="187.4814" x="421.26" y="384.0294"/><ellipse cx="462.302" cy="398.0294" fill="#FFFFFF" rx="9" ry="9" style="stroke:#000000;stroke-width:1;"/><path d="M465.2707,403.67 Q464.6926,403.9669 464.052,404.1075 Q463.4114,404.2638 462.7082,404.2638 Q460.2082,404.2638 458.8801,402.6231 Q457.5676,400.9669 457.5676,397.8419 Q457.5676,394.7169 458.8801,393.0606 Q460.2082,391.4044 462.7082,391.4044 Q463.4114,391.4044 464.052,391.5606 Q464.7082,391.7169 465.2707,392.0138 L465.2707,394.7325 Q464.6457,394.1544 464.052,393.8888 Q463.4582,393.6075 462.8332,393.6075 Q461.4895,393.6075 460.802,394.6856 Q460.1145,395.7481 460.1145,397.8419 Q460.1145,399.9356 460.802,401.0138 Q461.4895,402.0763 462.8332,402.0763 Q463.4582,402.0763 464.052,401.8106 Q464.6457,401.5294 465.2707,400.9513 L465.2707,403.67 Z " fill="#000000"/><text fill="#000000" font-family="Verdana" font-size="14" lengthAdjust="spacing" textLength="97.8975" x="479.802" y="402.8761">MessageNode</text><line style="stroke:#000000;stroke-width:1;" x1="422.26" x2="607.7414" y1="412.0294" y2="412.0294"/><g data-visibility-modifier="PUBLIC_FIELD"><ellipse cx="432.26" cy="425.6778" fill="none" rx="3" ry="3" style="stroke:#000000;stroke-width:1;"/></g><text fill="#000000" font-family="Verdana" font-size="14" lengthAdjust="spacing" textLength="66.7871" x="439.26" y="429.0245">role: Role</text><g data-visibility-modifier="PUBLIC_FIELD"><ellipse cx="432.26" cy="441.9747" fill="none" rx="3" ry="3" style="stroke:#000000;stroke-width:1;"/></g><text fill="#000000" font-family="Verdana" font-size="14" lengthAdjust="spacing" textLength="81.3066" x="439.26" y="445.3214">content: str</text><g data-visibility-modifier="PUBLIC_FIELD"><ellipse cx="432.26" cy="458.2716" fill="none" rx="3" ry="3" style="stroke:#000000;stroke-width:1;"/></g><text fill="#000000" font-family="Verdana" font-size="14" lengthAdjust="spacing" textLength="129.8691" x="439.26" y="461.6182">tool_call: ToolCall?</text><g data-visibility-modifier="PUBLIC_FIELD"><ellipse cx="432.26" cy="474.5684" fill="none" rx="3" ry="3" style="stroke:#000000;stroke-width:1;"/></g><text fill="#000000" font-family="Verdana" font-size="14" lengthAdjust="spacing" textLength="163.4814" x="439.26" y="477.9151">tool_result: ToolResult?</text><line style="stroke:#000000;stroke-width:1;" x1="422.26" x2="607.7414" y1="485.2169" y2="485.2169"/><text fill="#000000" font-family="Verdana" font-size="14" lengthAdjust="spacing" textLength="167.2207" x="427.26" y="502.212">Conversation messages</text></g><!--class ShellNode--><g class="entity" data-qualified-name="Graph.ShellNode" data-source-line="47" id="ent0007"><rect fill="#FFFFFF" height="125.4844" rx="2.5" ry="2.5" style="stroke:#000000;stroke-width:1;" width="164.0859" x="643.96" y="384.0294"/><ellipse cx="686.9078" cy="398.0294" fill="#FFFFFF" rx="9" ry="9" style="stroke:#000000;stroke-width:1;"/><path d="M689.8765,403.67 Q689.2984,403.9669 688.6578,404.1075 Q688.0171,404.2638 687.314,404.2638 Q684.814,404.2638 683.4859,402.6231 Q682.1734,400.9669 682.1734,397.8419 Q682.1734,394.7169 683.4859,393.0606 Q684.814,391.4044 687.314,391.4044 Q688.0171,391.4044 688.6578,391.5606 Q689.314,391.7169 689.8765,392.0138 L689.8765,394.7325 Q689.2515,394.1544 688.6578,393.8888 Q688.064,393.6075 687.439,393.6075 Q686.0953,393.6075 685.4078,394.6856 Q684.7203,395.7481 684.7203,397.8419 Q684.7203,399.9356 685.4078,401.0138 Q686.0953,402.0763 687.439,402.0763 Q688.064,402.0763 688.6578,401.8106 Q689.2515,401.5294 689.8765,400.9513 L689.8765,403.67 Z " fill="#000000"/><text fill="#000000" font-family="Verdana" font-size="14" lengthAdjust="spacing" textLength="70.6904" x="704.4078" y="402.8761">ShellNode</text><line style="stroke:#000000;stroke-width:1;" x1="644.96" x2="807.0459" y1="412.0294" y2="412.0294"/><g data-visibility-modifier="PUBLIC_FIELD"><ellipse cx="654.96" cy="425.6778" fill="none" rx="3" ry="3" style="stroke:#000000;stroke-width:1;"/></g><text fill="#000000" font-family="Verdana" font-size="14" lengthAdjust="spacing" textLength="97.583" x="661.96" y="429.0245">command: str</text><g data-visibility-modifier="PUBLIC_FIELD"><ellipse cx="654.96" cy="441.9747" fill="none" rx="3" ry="3" style="stroke:#000000;stroke-width:1;"/></g><text fill="#000000" font-family="Verdana" font-size="14" lengthAdjust="spacing" textLength="73.8828" x="661.96" y="445.3214">output: str</text><g data-visibility-modifier="PUBLIC_FIELD"><ellipse cx="654.96" cy="458.2716" fill="none" rx="3" ry="3" style="stroke:#000000;stroke-width:1;"/></g><text fill="#000000" font-family="Verdana" font-size="14" lengthAdjust="spacing" textLength="101.8896" x="661.96" y="461.6182">exit_code: int?</text><g data-visibility-modifier="PUBLIC_FIELD"><ellipse cx="654.96" cy="474.5684" fill="none" rx="3" ry="3" style="stroke:#000000;stroke-width:1;"/></g><text fill="#000000" font-family="Verdana" font-size="14" lengthAdjust="spacing" textLength="122.6504" x="661.96" y="477.9151">is_complete: bool</text><line style="stroke:#000000;stroke-width:1;" x1="644.96" x2="807.0459" y1="485.2169" y2="485.2169"/><text fill="#000000" font-family="Verdana" font-size="14" lengthAdjust="spacing" textLength="152.0859" x="649.96" y="502.212">Async shell execution</text></g><!--class MCPServerNode--><g class="entity" data-qualified-name="Graph.MCPServerNode" data-source-line="56" id="ent0008"><rect fill="#FFFFFF" height="109.1875" rx="2.5" ry="2.5" style="stroke:#000000;stroke-width:1;" width="194.8643" x="842.57" y="392.1794"/><ellipse cx="879.9236" cy="406.1794" fill="#FFFFFF" rx="9" ry="9" style="stroke:#000000;stroke-width:1;"/><path d="M882.8924,411.82 Q882.3142,412.1169 881.6736,412.2575 Q881.033,412.4138 880.3299,412.4138 Q877.8299,412.4138 876.5017,410.7731 Q875.1892,409.1169 875.1892,405.9919 Q875.1892,402.8669 876.5017,401.2106 Q877.8299,399.5544 880.3299,399.5544 Q881.033,399.5544 881.6736,399.7106 Q882.3299,399.8669 882.8924,400.1638 L882.8924,402.8825 Q882.2674,402.3044 881.6736,402.0388 Q881.0799,401.7575 880.4549,401.7575 Q879.1111,401.7575 878.4236,402.8356 Q877.7361,403.8981 877.7361,405.9919 Q877.7361,408.0856 878.4236,409.1638 Q879.1111,410.2263 880.4549,410.2263 Q881.0799,410.2263 881.6736,409.9606 Q882.2674,409.6794 882.8924,409.1013 L882.8924,411.82 Z " fill="#000000"/><text fill="#000000" font-family="Verdana" font-size="14" lengthAdjust="spacing" textLength="112.7451" x="897.3355" y="411.0261">MCPServerNode</text><line style="stroke:#000000;stroke-width:1;" x1="843.57" x2="1036.4343" y1="420.1794" y2="420.1794"/><g data-visibility-modifier="PUBLIC_FIELD"><ellipse cx="853.57" cy="433.8278" fill="none" rx="3" ry="3" style="stroke:#000000;stroke-width:1;"/></g><text fill="#000000" font-family="Verdana" font-size="14" lengthAdjust="spacing" textLength="67.4092" x="860.57" y="437.1745">name: str</text><g data-visibility-modifier="PUBLIC_FIELD"><ellipse cx="853.57" cy="450.1247" fill="none" rx="3" ry="3" style="stroke:#000000;stroke-width:1;"/></g><text fill="#000000" font-family="Verdana" font-size="14" lengthAdjust="spacing" textLength="129.0693" x="860.57" y="453.4714">command: list[str]</text><g data-visibility-modifier="PUBLIC_FIELD"><ellipse cx="853.57" cy="466.4216" fill="none" rx="3" ry="3" style="stroke:#000000;stroke-width:1;"/></g><text fill="#000000" font-family="Verdana" font-size="14" lengthAdjust="spacing" textLength="170.8643" x="860.57" y="469.7682">tools: list[MCPToolNode]</text><line style="stroke:#000000;stroke-width:1;" x1="843.57" x2="1036.4343" y1="477.07" y2="477.07"/><text fill="#000000" font-family="Verdana" font-size="14" lengthAdjust="spacing" textLength="160.6514" x="848.57" y="494.0651">MCP server connection</text></g><!--class TopicNode--><g class="entity" data-qualified-name="Graph.TopicNode" data-source-line="64" id="ent0009"><rect fill="#FFFFFF" height="76.5938" rx="2.5" ry="2.5" style="stroke:#000000;stroke-width:1;" width="210.1055" x="1071.95" y="408.4694"/><ellipse cx="1136.1883" cy="422.4694" fill="#FFFFFF" rx="9" ry="9" style="stroke:#000000;stroke-width:1;"/><path d="M1139.157,428.11 Q1138.5789,428.4069 1137.9383,428.5475 Q1137.2977,428.7038 1136.5945,428.7038 Q1134.0945,428.7038 1132.7664,427.0631 Q1131.4539,425.4069 1131.4539,422.2819 Q1131.4539,419.1569 1132.7664,417.5006 Q1134.0945,415.8444 1136.5945,415.8444 Q1137.2977,415.8444 1137.9383,416.0006 Q1138.5945,416.1569 1139.157,416.4538 L1139.157,419.1725 Q1138.532,418.5944 1137.9383,418.3288 Q1137.3445,418.0475 1136.7195,418.0475 Q1135.3758,418.0475 1134.6883,419.1256 Q1134.0008,420.1881 1134.0008,422.2819 Q1134.0008,424.3756 1134.6883,425.4538 Q1135.3758,426.5163 1136.7195,426.5163 Q1137.3445,426.5163 1137.9383,426.2506 Q1138.532,425.9694 1139.157,425.3913 L1139.157,428.11 Z " fill="#000000"/><text fill="#000000" font-family="Verdana" font-size="14" lengthAdjust="spacing" textLength="74.1289" x="1153.6883" y="427.3161">TopicNode</text><line style="stroke:#000000;stroke-width:1;" x1="1072.95" x2="1281.0555" y1="436.4694" y2="436.4694"/><g data-visibility-modifier="PUBLIC_FIELD"><ellipse cx="1082.95" cy="450.1178" fill="none" rx="3" ry="3" style="stroke:#000000;stroke-width:1;"/></g><text fill="#000000" font-family="Verdana" font-size="14" lengthAdjust="spacing" textLength="55.0771" x="1089.95" y="453.4645">title: str</text><line style="stroke:#000000;stroke-width:1;" x1="1072.95" x2="1281.0555" y1="460.7663" y2="460.7663"/><text fill="#000000" font-family="Verdana" font-size="14" lengthAdjust="spacing" textLength="198.1055" x="1077.95" y="477.7614">Conversation thread marker</text></g><!--class ArtifactNode--><g class="entity" data-qualified-name="Graph.ArtifactNode" data-source-line="70" id="ent0010"><rect fill="#FFFFFF" height="109.1875" rx="2.5" ry="2.5" style="stroke:#000000;stroke-width:1;" width="173.8887" x="1317.06" y="392.1794"/><ellipse cx="1356.2822" cy="406.1794" fill="#FFFFFF" rx="9" ry="9" style="stroke:#000000;stroke-width:1;"/><path d="M1359.2509,411.82 Q1358.6728,412.1169 1358.0322,412.2575 Q1357.3915,412.4138 1356.6884,412.4138 Q1354.1884,412.4138 1352.8603,410.7731 Q1351.5478,409.1169 1351.5478,405.9919 Q1351.5478,402.8669 1352.8603,401.2106 Q1354.1884,399.5544 1356.6884,399.5544 Q1357.3915,399.5544 1358.0322,399.7106 Q1358.6884,399.8669 1359.2509,400.1638 L1359.2509,402.8825 Q1358.6259,402.3044 1358.0322,402.0388 Q1357.4384,401.7575 1356.8134,401.7575 Q1355.4697,401.7575 1354.7822,402.8356 Q1354.0947,403.8981 1354.0947,405.9919 Q1354.0947,408.0856 1354.7822,409.1638 Q1355.4697,410.2263 1356.8134,410.2263 Q1357.4384,410.2263 1358.0322,409.9606 Q1358.6259,409.6794 1359.2509,409.1013 L1359.2509,411.82 Z " fill="#000000"/><text fill="#000000" font-family="Verdana" font-size="14" lengthAdjust="spacing" textLength="87.9443" x="1373.7822" y="411.0261">ArtifactNode</text><line style="stroke:#000000;stroke-width:1;" x1="1318.06" x2="1489.9487" y1="420.1794" y2="420.1794"/><g data-visibility-modifier="PUBLIC_FIELD"><ellipse cx="1328.06" cy="433.8278" fill="none" rx="3" ry="3" style="stroke:#000000;stroke-width:1;"/></g><text fill="#000000" font-family="Verdana" font-size="14" lengthAdjust="spacing" textLength="81.3066" x="1335.06" y="437.1745">content: str</text><g data-visibility-modifier="PUBLIC_FIELD"><ellipse cx="1328.06" cy="450.1247" fill="none" rx="3" ry="3" style="stroke:#000000;stroke-width:1;"/></g><text fill="#000000" font-family="Verdana" font-size="14" lengthAdjust="spacing" textLength="116.3887" x="1335.06" y="453.4714">artifact_type: str</text><g data-visibility-modifier="PUBLIC_FIELD"><ellipse cx="1328.06" cy="466.4216" fill="none" rx="3" ry="3" style="stroke:#000000;stroke-width:1;"/></g><text fill="#000000" font-family="Verdana" font-size="14" lengthAdjust="spacing" textLength="100.3174" x="1335.06" y="469.7682">language: str?</text><line style="stroke:#000000;stroke-width:1;" x1="1318.06" x2="1489.9487" y1="477.07" y2="477.07"/><text fill="#000000" font-family="Verdana" font-size="14" lengthAdjust="spacing" textLength="161.8887" x="1323.06" y="494.0651">Code snippets, outputs</text></g><!--class MarkdownNode--><g class="entity" data-qualified-name="Graph.MarkdownNode" data-source-line="78" id="ent0011"><rect fill="#FFFFFF" height="109.1875" rx="2.5" ry="2.5" style="stroke:#000000;stroke-width:1;" width="174.3838" x="1525.81" y="392.1794"/><ellipse cx="1555.707" cy="406.1794" fill="#FFFFFF" rx="9" ry="9" style="stroke:#000000;stroke-width:1;"/><path d="M1558.6757,411.82 Q1558.0976,412.1169 1557.457,412.2575 Q1556.8163,412.4138 1556.1132,412.4138 Q1553.6132,412.4138 1552.2851,410.7731 Q1550.9726,409.1169 1550.9726,405.9919 Q1550.9726,402.8669 1552.2851,401.2106 Q1553.6132,399.5544 1556.1132,399.5544 Q1556.8163,399.5544 1557.457,399.7106 Q1558.1132,399.8669 1558.6757,400.1638 L1558.6757,402.8825 Q1558.0507,402.3044 1557.457,402.0388 Q1556.8632,401.7575 1556.2382,401.7575 Q1554.8945,401.7575 1554.207,402.8356 Q1553.5195,403.8981 1553.5195,405.9919 Q1553.5195,408.0856 1554.207,409.1638 Q1554.8945,410.2263 1556.2382,410.2263 Q1556.8632,410.2263 1557.457,409.9606 Q1558.0507,409.6794 1558.6757,409.1013 L1558.6757,411.82 Z " fill="#000000"/><text fill="#000000" font-family="Verdana" font-size="14" lengthAdjust="spacing" textLength="108.835" x="1571.4619" y="411.0261">MarkdownNode</text><line style="stroke:#000000;stroke-width:1;" x1="1526.81" x2="1699.1938" y1="420.1794" y2="420.1794"/><g data-visibility-modifier="PUBLIC_FIELD"><ellipse cx="1536.81" cy="433.8278" fill="none" rx="3" ry="3" style="stroke:#000000;stroke-width:1;"/></g><text fill="#000000" font-family="Verdana" font-size="14" lengthAdjust="spacing" textLength="89.4688" x="1543.81" y="437.1745">buffer_id: str</text><g data-visibility-modifier="PUBLIC_FIELD"><ellipse cx="1536.81" cy="450.1247" fill="none" rx="3" ry="3" style="stroke:#000000;stroke-width:1;"/></g><text fill="#000000" font-family="Verdana" font-size="14" lengthAdjust="spacing" textLength="150.3838" x="1543.81" y="453.4714">sections: list[Section]</text><line style="stroke:#000000;stroke-width:1;" x1="1526.81" x2="1699.1938" y1="460.7731" y2="460.7731"/><text fill="#000000" font-family="Verdana" font-size="14" lengthAdjust="spacing" textLength="152.626" x="1531.81" y="477.7682">Structured markdown</text><text fill="#000000" font-family="Verdana" font-size="14" lengthAdjust="spacing" textLength="161.5264" x="1531.81" y="494.0651">with heading hierarchy</text></g><!--class WorkNode--><g class="entity" data-qualified-name="Graph.WorkNode" data-source-line="86" id="ent0012"><rect fill="#FFFFFF" height="109.1875" rx="2.5" ry="2.5" style="stroke:#000000;stroke-width:1;" width="183.7939" x="1735.1" y="392.1794"/><ellipse cx="1786.8422" cy="406.1794" fill="#FFFFFF" rx="9" ry="9" style="stroke:#000000;stroke-width:1;"/><path d="M1789.8109,411.82 Q1789.2328,412.1169 1788.5922,412.2575 Q1787.9516,412.4138 1787.2484,412.4138 Q1784.7484,412.4138 1783.4203,410.7731 Q1782.1078,409.1169 1782.1078,405.9919 Q1782.1078,402.8669 1783.4203,401.2106 Q1784.7484,399.5544 1787.2484,399.5544 Q1787.9516,399.5544 1788.5922,399.7106 Q1789.2484,399.8669 1789.8109,400.1638 L1789.8109,402.8825 Q1789.1859,402.3044 1788.5922,402.0388 Q1787.9984,401.7575 1787.3734,401.7575 Q1786.0297,401.7575 1785.3422,402.8356 Q1784.6547,403.8981 1784.6547,405.9919 Q1784.6547,408.0856 1785.3422,409.1638 Q1786.0297,410.2263 1787.3734,410.2263 Q1787.9984,410.2263 1788.5922,409.9606 Q1789.1859,409.6794 1789.8109,409.1013 L1789.8109,411.82 Z " fill="#000000"/><text fill="#000000" font-family="Verdana" font-size="14" lengthAdjust="spacing" textLength="72.8096" x="1804.3422" y="411.0261">WorkNode</text><line style="stroke:#000000;stroke-width:1;" x1="1736.1" x2="1917.8939" y1="420.1794" y2="420.1794"/><g data-visibility-modifier="PUBLIC_FIELD"><ellipse cx="1746.1" cy="433.8278" fill="none" rx="3" ry="3" style="stroke:#000000;stroke-width:1;"/></g><text fill="#000000" font-family="Verdana" font-size="14" lengthAdjust="spacing" textLength="68.9336" x="1753.1" y="437.1745">intent: str</text><g data-visibility-modifier="PUBLIC_FIELD"><ellipse cx="1746.1" cy="450.1247" fill="none" rx="3" ry="3" style="stroke:#000000;stroke-width:1;"/></g><text fill="#000000" font-family="Verdana" font-size="14" lengthAdjust="spacing" textLength="141.8867" x="1753.1" y="453.4714">files: list[FileAccess]</text><g data-visibility-modifier="PUBLIC_FIELD"><ellipse cx="1746.1" cy="466.4216" fill="none" rx="3" ry="3" style="stroke:#000000;stroke-width:1;"/></g><text fill="#000000" font-family="Verdana" font-size="14" lengthAdjust="spacing" textLength="152.0859" x="1753.1" y="469.7682">conflicts: list[Conflict]</text><line style="stroke:#000000;stroke-width:1;" x1="1736.1" x2="1917.8939" y1="477.07" y2="477.07"/><text fill="#000000" font-family="Verdana" font-size="14" lengthAdjust="spacing" textLength="171.7939" x="1741.1" y="494.0651">Multi-agent coordination</text></g><!--class SessionNode--><g class="entity" data-qualified-name="Graph.SessionNode" data-source-line="94" id="ent0013"><rect fill="#FFFFFF" height="76.5938" rx="2.5" ry="2.5" style="stroke:#000000;stroke-width:1;" width="156.4668" x="1953.77" y="408.4694"/><ellipse cx="1984.1007" cy="422.4694" fill="#FFFFFF" rx="9" ry="9" style="stroke:#000000;stroke-width:1;"/><path d="M1987.0695,428.11 Q1986.4913,428.4069 1985.8507,428.5475 Q1985.2101,428.7038 1984.507,428.7038 Q1982.007,428.7038 1980.6788,427.0631 Q1979.3663,425.4069 1979.3663,422.2819 Q1979.3663,419.1569 1980.6788,417.5006 Q1982.007,415.8444 1984.507,415.8444 Q1985.2101,415.8444 1985.8507,416.0006 Q1986.507,416.1569 1987.0695,416.4538 L1987.0695,419.1725 Q1986.4445,418.5944 1985.8507,418.3288 Q1985.257,418.0475 1984.632,418.0475 Q1983.2882,418.0475 1982.6007,419.1256 Q1981.9132,420.1881 1981.9132,422.2819 Q1981.9132,424.3756 1982.6007,425.4538 Q1983.2882,426.5163 1984.632,426.5163 Q1985.257,426.5163 1985.8507,426.2506 Q1986.4445,425.9694 1987.0695,425.3913 L1987.0695,428.11 Z " fill="#000000"/><text fill="#000000" font-family="Verdana" font-size="14" lengthAdjust="spacing" textLength="89.9541" x="1999.952" y="427.3161">SessionNode</text><line style="stroke:#000000;stroke-width:1;" x1="1954.77" x2="2109.2368" y1="436.4694" y2="436.4694"/><g data-visibility-modifier="PUBLIC_FIELD"><ellipse cx="1964.77" cy="450.1178" fill="none" rx="3" ry="3" style="stroke:#000000;stroke-width:1;"/></g><text fill="#000000" font-family="Verdana" font-size="14" lengthAdjust="spacing" textLength="132.4668" x="1971.77" y="453.4645">stats: SessionStats</text><line style="stroke:#000000;stroke-width:1;" x1="1954.77" x2="2109.2368" y1="460.7663" y2="460.7663"/><text fill="#000000" font-family="Verdana" font-size="14" lengthAdjust="spacing" textLength="125.7197" x="1959.77" y="477.7614">Session metadata</text></g><!--class ContextGraph--><g class="entity" data-qualified-name="Ops.ContextGraph" data-source-line="113" id="ent0025"><rect fill="#FFFFFF" height="223.2656" rx="2.5" ry="2.5" style="stroke:#000000;stroke-width:1;" width="249.3809" x="2472.31" y="92.6094"/><ellipse cx="2544.2333" cy="106.6094" fill="#FFFFFF" rx="9" ry="9" style="stroke:#000000;stroke-width:1;"/><path d="M2547.2021,112.25 Q2546.624,112.5469 2545.9833,112.6875 Q2545.3427,112.8438 2544.6396,112.8438 Q2542.1396,112.8438 2540.8115,111.2031 Q2539.499,109.5469 2539.499,106.4219 Q2539.499,103.2969 2540.8115,101.6406 Q2542.1396,99.9844 2544.6396,99.9844 Q2545.3427,99.9844 2545.9833,100.1406 Q2546.6396,100.2969 2547.2021,100.5938 L2547.2021,103.3125 Q2546.5771,102.7344 2545.9833,102.4688 Q2545.3896,102.1875 2544.7646,102.1875 Q2543.4208,102.1875 2542.7333,103.2656 Q2542.0458,104.3281 2542.0458,106.4219 Q2542.0458,108.5156 2542.7333,109.5938 Q2543.4208,110.6563 2544.7646,110.6563 Q2545.3896,110.6563 2545.9833,110.3906 Q2546.5771,110.1094 2547.2021,109.5313 L2547.2021,112.25 Z " fill="#000000"/><text fill="#000000" font-family="Verdana" font-size="14" lengthAdjust="spacing" textLength="98.0342" x="2561.7333" y="111.4561">ContextGraph</text><line style="stroke:#000000;stroke-width:1;" x1="2473.31" x2="2720.6909" y1="120.6094" y2="120.6094"/><g data-visibility-modifier="PUBLIC_FIELD"><ellipse cx="2483.31" cy="134.2578" fill="none" rx="3" ry="3" style="stroke:#000000;stroke-width:1;"/></g><text fill="#000000" font-family="Verdana" font-size="14" lengthAdjust="spacing" textLength="207.3545" x="2490.31" y="137.6045">nodes: dict[str, ContextNode]</text><g data-visibility-modifier="PUBLIC_FIELD"><ellipse cx="2483.31" cy="150.5547" fill="none" rx="3" ry="3" style="stroke:#000000;stroke-width:1;"/></g><text fill="#000000" font-family="Verdana" font-size="14" lengthAdjust="spacing" textLength="118.6992" x="2490.31" y="153.9014">edges: list[tuple]</text><g data-visibility-modifier="PUBLIC_FIELD"><ellipse cx="2483.31" cy="166.8516" fill="none" rx="3" ry="3" style="stroke:#000000;stroke-width:1;"/></g><text fill="#000000" font-family="Verdana" font-size="14" lengthAdjust="spacing" textLength="143.3018" x="2490.31" y="170.1982">root_context_id: str?</text><line style="stroke:#000000;stroke-width:1;" x1="2473.31" x2="2720.6909" y1="177.5" y2="177.5"/><g data-visibility-modifier="PUBLIC_METHOD"><ellipse cx="2483.31" cy="191.1484" fill="#FFFFFF" rx="3" ry="3" style="stroke:#000000;stroke-width:1;"/></g><text fill="#000000" font-family="Verdana" font-size="14" lengthAdjust="spacing" textLength="114.1533" x="2490.31" y="194.4951">add_node(node)</text><g data-visibility-modifier="PUBLIC_METHOD"><ellipse cx="2483.31" cy="207.4453" fill="#FFFFFF" rx="3" ry="3" style="stroke:#000000;stroke-width:1;"/></g><text fill="#000000" font-family="Verdana" font-size="14" lengthAdjust="spacing" textLength="124.0176" x="2490.31" y="210.792">link(parent, child)</text><g data-visibility-modifier="PUBLIC_METHOD"><ellipse cx="2483.31" cy="223.7422" fill="#FFFFFF" rx="3" ry="3" style="stroke:#000000;stroke-width:1;"/></g><text fill="#000000" font-family="Verdana" font-size="14" lengthAdjust="spacing" textLength="141.7637" x="2490.31" y="227.0889">unlink(parent, child)</text><g data-visibility-modifier="PUBLIC_METHOD"><ellipse cx="2483.31" cy="240.0391" fill="#FFFFFF" rx="3" ry="3" style="stroke:#000000;stroke-width:1;"/></g><text fill="#000000" font-family="Verdana" font-size="14" lengthAdjust="spacing" textLength="194.0313" x="2490.31" y="243.3857">get_root() -&gt; ContextNode?</text><g data-visibility-modifier="PUBLIC_METHOD"><ellipse cx="2483.31" cy="256.3359" fill="#FFFFFF" rx="3" ry="3" style="stroke:#000000;stroke-width:1;"/></g><text fill="#000000" font-family="Verdana" font-size="14" lengthAdjust="spacing" textLength="225.3809" x="2490.31" y="259.6826">get_roots() -&gt; list[ContextNode]</text><g data-visibility-modifier="PUBLIC_METHOD"><ellipse cx="2483.31" cy="272.6328" fill="#FFFFFF" rx="3" ry="3" style="stroke:#000000;stroke-width:1;"/></g><text fill="#000000" font-family="Verdana" font-size="14" lengthAdjust="spacing" textLength="198.3516" x="2490.31" y="275.9795">get_children(node_id) -&gt; list</text><g data-visibility-modifier="PUBLIC_METHOD"><ellipse cx="2483.31" cy="288.9297" fill="#FFFFFF" rx="3" ry="3" style="stroke:#000000;stroke-width:1;"/></g><text fill="#000000" font-family="Verdana" font-size="14" lengthAdjust="spacing" textLength="127.3193" x="2490.31" y="292.2764">checkpoint(name)</text><g data-visibility-modifier="PUBLIC_METHOD"><ellipse cx="2483.31" cy="305.2266" fill="#FFFFFF" rx="3" ry="3" style="stroke:#000000;stroke-width:1;"/></g><text fill="#000000" font-family="Verdana" font-size="14" lengthAdjust="spacing" textLength="100.7139" x="2490.31" y="308.5732">restore(name)</text></g><g class="entity" data-qualified-name="GMN26" data-source-line="130" id="ent0027"><path d="M2169.13,161.4194 L2169.13,247.0834 L2436.8761,247.0834 L2436.8761,171.4194 L2426.8761,161.4194 L2169.13,161.4194" fill="#FFFFFF" style="stroke:#000000;stroke-width:1;"/><path d="M2426.8761,161.4194 L2426.8761,171.4194 L2436.8761,171.4194 L2426.8761,161.4194" fill="#FFFFFF" style="stroke:#000000;stroke-width:1;"/><text fill="#000000" font-family="Verdana" font-size="13" font-weight="bold" lengthAdjust="spacing" textLength="105.6948" x="2175.13" y="178.4863">DAG Structure</text><text fill="#000000" font-family="Verdana" font-size="13" lengthAdjust="spacing" textLength="232.6733" x="2175.13" y="193.6191">- Nodes form directed acyclic graph</text><text fill="#000000" font-family="Verdana" font-size="13" lengthAdjust="spacing" textLength="243.5088" x="2175.13" y="208.7519">- Parents contain/summarize children</text><text fill="#000000" font-family="Verdana" font-size="13" lengthAdjust="spacing" textLength="246.7461" x="2175.13" y="223.8847">- child_order defines render sequence</text><text fill="#000000" font-family="Verdana" font-size="13" lengthAdjust="spacing" textLength="240.0176" x="2175.13" y="239.0175">- root_context_id for document order</text></g><g class="entity" data-qualified-name="GMN29" data-source-line="138" id="ent0030"><path d="M37.71,577.6594 L37.71,633.0578 A0,0 0 0 0 37.71,633.0578 L186.2915,633.0578 A0,0 0 0 0 186.2915,633.0578 L186.2915,587.6594 L176.2915,577.6594 L116,577.6594 L112,517.8194 L108,577.6594 L37.71,577.6594 A0,0 0 0 0 37.71,577.6594" fill="#FFFFFF" style="stroke:#000000;stroke-width:1;"/><path d="M176.2915,577.6594 L176.2915,587.6594 L186.2915,587.6594 L176.2915,577.6594" fill="#FFFFFF" style="stroke:#000000;stroke-width:1;"/><text fill="#000000" font-family="Verdana" font-size="13" font-weight="bold" lengthAdjust="spacing" textLength="116.7905" x="43.71" y="594.7263">Position Format</text><text fill="#000000" font-family="Verdana" font-size="13" lengthAdjust="spacing" textLength="127.5815" x="43.71" y="609.8591">pos="1:0" (line:col)</text><text fill="#000000" font-family="Verdana" font-size="13" lengthAdjust="spacing" textLength="106.0122" x="43.71" y="624.9919">end_pos="50:0"</text></g><!--reverse link ContextNode to TextNode--><g class="link" data-entity-1="ent0003" data-entity-2="ent0004" data-link-type="extension" data-source-line="100" id="lnk14"><path codeLine="100" d="M959.2746,210.9053 C803.6846,221.8753 472.19,257.4794 206,375.8794 C200.33,378.3994 194.68,381.3094 189.12,384.4894" fill="none" id="ContextNode-backto-TextNode" style="stroke:#000000;stroke-width:1;"/><polygon fill="none" points="977.23,209.6394,958.8526,204.9202,959.6966,216.8905,977.23,209.6394" style="stroke:#000000;stroke-width:1;"/></g><!--reverse link ContextNode to GroupNode--><g class="link" data-entity-1="ent0003" data-entity-2="ent0005" data-link-type="extension" data-source-line="101" id="lnk15"><path codeLine="101" d="M959.3024,219.5805 C832.5124,239.7005 599.14,285.2094 404,375.8794 C394.27,380.3994 384.49,385.8994 375.06,391.7894" fill="none" id="ContextNode-backto-GroupNode" style="stroke:#000000;stroke-width:1;"/><polygon fill="none" points="977.08,216.7594,958.3621,213.6546,960.2428,225.5063,977.08,216.7594" style="stroke:#000000;stroke-width:1;"/></g><!--reverse link ContextNode to MessageNode--><g class="link" data-entity-1="ent0003" data-entity-2="ent0006" data-link-type="extension" data-source-line="102" id="lnk16"><path codeLine="102" d="M960.2158,237.9545 C871.9458,268.4345 744.32,315.9194 626,375.8794 C620.41,378.7094 614.75,381.7394 609.08,384.8894" fill="none" id="ContextNode-backto-MessageNode" style="stroke:#000000;stroke-width:1;"/><polygon fill="none" points="977.23,232.0794,958.2574,232.283,962.1741,243.6259,977.23,232.0794" style="stroke:#000000;stroke-width:1;"/></g><!--reverse link ContextNode to ShellNode--><g class="link" data-entity-1="ent0003" data-entity-2="ent0007" data-link-type="extension" data-source-line="103" id="lnk17"><path codeLine="103" d="M962.6335,274.3399 C911.3835,311.4699 859.85,348.7994 808.31,386.1394" fill="none" id="ContextNode-backto-ShellNode" style="stroke:#000000;stroke-width:1;"/><polygon fill="none" points="977.21,263.7794,959.1133,269.4811,966.1536,279.1987,977.21,263.7794" style="stroke:#000000;stroke-width:1;"/></g><!--reverse link ContextNode to MCPServerNode--><g class="link" data-entity-1="ent0003" data-entity-2="ent0008" data-link-type="extension" data-source-line="104" id="lnk18"><path codeLine="104" d="M1007.6404,307.8986 C991.2504,341.2986 980.94,362.3194 966.48,391.7894" fill="none" id="ContextNode-backto-MCPServerNode" style="stroke:#000000;stroke-width:1;"/><polygon fill="none" points="1015.57,291.7394,1002.254,305.2554,1013.0268,310.5418,1015.57,291.7394" style="stroke:#000000;stroke-width:1;"/></g><!--reverse link ContextNode to TopicNode--><g class="link" data-entity-1="ent0003" data-entity-2="ent0009" data-link-type="extension" data-source-line="105" id="lnk19"><path codeLine="105" d="M1108.772,307.8728 C1128.562,347.8728 1143.06,377.1594 1158.44,408.2594" fill="none" id="ContextNode-backto-TopicNode" style="stroke:#000000;stroke-width:1;"/><polygon fill="none" points="1100.79,291.7394,1103.3942,310.5335,1114.1498,305.2121,1100.79,291.7394" style="stroke:#000000;stroke-width:1;"/></g><!--reverse link ContextNode to ArtifactNode--><g class="link" data-entity-1="ent0003" data-entity-2="ent0010" data-link-type="extension" data-source-line="106" id="lnk20"><path codeLine="106" d="M1108.5721,306.9179 C1120.6021,325.0479 1125.41,327.4094 1143,339.8794 C1201.41,381.2694 1234.3,347.4394 1300,375.8794 C1310.28,380.3294 1320.63,385.8194 1330.62,391.7494" fill="none" id="ContextNode-backto-ArtifactNode" style="stroke:#000000;stroke-width:1;"/><polygon fill="none" points="1098.62,291.9194,1103.5726,310.2353,1113.5716,303.6005,1098.62,291.9194" style="stroke:#000000;stroke-width:1;"/></g><!--reverse link ContextNode to MarkdownNode--><g class="link" data-entity-1="ent0003" data-entity-2="ent0011" data-link-type="extension" data-source-line="107" id="lnk21"><path codeLine="107" d="M1106.2391,306.8926 C1118.4991,325.5926 1124.06,328.1894 1143,339.8794 C1281.72,425.4994 1354.47,321.0894 1508,375.8794 C1519.45,379.9694 1530.86,385.5594 1541.73,391.8294" fill="none" id="ContextNode-backto-MarkdownNode" style="stroke:#000000;stroke-width:1;"/><polygon fill="none" points="1096.37,291.8394,1101.2214,310.1823,1111.2569,303.6029,1096.37,291.8394" style="stroke:#000000;stroke-width:1;"/></g><!--reverse link ContextNode to WorkNode--><g class="link" data-entity-1="ent0003" data-entity-2="ent0012" data-link-type="extension" data-source-line="108" id="lnk22"><path codeLine="108" d="M1105.4524,306.7032 C1117.7924,325.6532 1123.62,328.3894 1143,339.8794 C1253.13,405.1594 1596.32,336.0494 1718,375.8794 C1730.07,379.8294 1742.12,385.4394 1753.58,391.7894" fill="none" id="ContextNode-backto-WorkNode" style="stroke:#000000;stroke-width:1;"/><polygon fill="none" points="1095.63,291.6194,1100.4244,309.9773,1110.4803,303.429,1095.63,291.6194" style="stroke:#000000;stroke-width:1;"/></g><!--reverse link ContextNode to SessionNode--><g class="link" data-entity-1="ent0003" data-entity-2="ent0013" data-link-type="extension" data-source-line="109" id="lnk23"><path codeLine="109" d="M1105.3124,306.9332 C1117.6524,325.8832 1123.52,328.5594 1143,339.8794 C1295.51,428.5294 1769.54,317.4994 1936,375.8794 C1956.04,382.9094 1975.49,395.5894 1991.59,408.2494" fill="none" id="ContextNode-backto-SessionNode" style="stroke:#000000;stroke-width:1;"/><polygon fill="none" points="1095.49,291.8494,1100.2844,310.2073,1110.3403,303.659,1095.49,291.8494" style="stroke:#000000;stroke-width:1;"/></g><!--link Graph to GMN26--><g class="link" data-entity-1="ent0002" data-entity-2="ent0027" data-link-type="association" data-source-line="130" id="lnk28"><path d="M2142.0076,204.2494 C2142.0521,204.2494 2142.0966,204.2494 2142.1411,204.2494 C2142.4974,204.2494 2142.8536,204.2494 2143.2098,204.2494 C2146.0597,204.2494 2148.9094,204.2494 2151.7588,204.2494 C2157.4575,204.2494 2163.155,204.2494 2168.85,204.2494" fill="none" id="Graph-GMN26" style="stroke:#000000;stroke-width:1;stroke-dasharray:7,7;"/></g><?plantuml-src TLPBR-Cs4BxxLqpTY-EDqUsX5xVRmF0swMMxGHoWXo8mQ6ei4QP8bQGsSTlyzmuVaYb5GGA3cXdEVFFcTwx26g6HJAYPFGdLCCDgE31-AerkLR7LKXlu_lOt_pUREU4ameOxyGstMZbySR22xdHdM5F1pfcMkzRWRDQG7bOYp9D455XytjnTpO7PTE7V6G3ziuDrXd47N39hEwL_w0A31C07HUUzADP0Wf5I24lOpqEYTSpX6lpDdJz6gjCdL7ODGhb8u9MGnLwR0iqQfB3kBzBm57YhLHHvG4NS1Nykhc3rwyN27RhFeaJh5e5U29vqFWf-YhI3rf9ehz6twDBZo9-6kIh3tMYRVP7f_P32VKIKkr0Ip8ZImb5GRf9GO3mBLv5d2a6rzO54ne3kACTDZiYsTStCEJDQOxZvJeH-HqQcGIjv_Xb2G0sgm34151PmE0Egaa2CZNz1QwauSlD6IqhS0_s-up5bKSizPrAkuP6EMphTP1o3jfKkyXx2-IQ7IpNrZPnXJcW5TRJ_9YYx2gNCKN5DGL5vXUdMDMqE2r-4stEw4-eh8HAMI7KZqLTZgeSUoiQU5GVhRG6-86yzfZSXsjxlq13aGHUm6WTLaT0D4nJYqQMDzFY8U2s3z14TR33WwqOXdmBng1l1Sm1X2Bofma5iNMMeCe1gwOHch71Zd3XIemzZFCuqIr9xTsvoVoLJPKjv2wHHTacVLQ9fqDbhY4bwazulXAdGpogtVcYFHpIZAHAZqOLm5py7uUidNVJKQxtqNKK14Ag4Ig1XXbVdCP0_jJdb8CGu0hwVE_EtTDvmJYNxr0ViA6dkT0BRz3tCBpM0M56m54rLJQDEA3QLuXtf9V9W4j3a9Ds9u-Ue7RWUwTH4ZXNCiOl6V6x_yjzgrK-zALu_WAQOsO2OOlTzEdatxvn9L5rLJp7p2ftKdjNG5BzBxIJiIwndhzcAZBlmQqFL4kekBCYlZGq96Qp4ozPCEv7ov5UGR_xht60g5IpAlevSI_FegPkssW-j8DxL_g2XFh2Ys7i32_zpbVfFgDE2dWbKKzTnv2T6gzvbbUZstbfSZHd2co7VHe6ke4T-UAbknopIMw2NxtOwybEZgPKMVamcyxGLd3ROarvzu9Ls24QKbGDzZ2yHOYsNz3YvDFPoIRHLU4hGVjMcfa0RcWJKyOoVEJKSbEdc2kw3vpQiO7fF_H2NgVW7yysuWkpT0GKUQJFQj2rf5l_Tek8Ov4RfyUQXqBojVJU7wpEw1TwFvCr1EwThxqxMSylblROYJELRSe2vu1EzB3xDVrn_dCF2Fn3MN4iVcVJe-3J_wIFnUlt_0m00?></g></svg>