<?plantuml 1.2026.1beta5?><svg xmlns="http://www.w3.org/2000/svg" xmlns:xlink="http://www.w3.org/1999/xlink" contentStyleType="text/css" data-diagram-type="STATE" height="969px" preserveAspectRatio="none" style="width:1443px;height:969px;background:#FEFEFE;" version="1.1" viewBox="0 0 1443 969" width="1443px" zoomAndPan="magnify"><title>ActiveContext - NodeState Visibility Model</title><defs/><g><rect fill="#FEFEFE" height="969" style="stroke:none;stroke-width:1;" width="1443" x="0" y="0"/><g class="title" data-source-line="4"><text fill="#000000" font-family="Verdana" font-size="22" font-weight="bold" lengthAdjust="spacing" textLength="528.709" x="453.0551" y="35.4209">ActiveContext - NodeState Visibility Model</text></g><!--cluster NS--><g class="cluster" data-qualified-name="NS" data-source-line="6" id="ent0002"><path d="M24.5,58.6094 L1170.5,58.6094 A12.5,12.5 0 0 1 1183,71.1094 L1183,79.9063 L12,79.9063 L12,71.1094 A12.5,12.5 0 0 1 24.5,58.6094" fill="#FFFFFF"/><path d="M12,79.9063 L1183,79.9063 L1183,805.0194 A12.5,12.5 0 0 1 1170.5,817.5194 L24.5,817.5194 A12.5,12.5 0 0 1 12,805.0194 L12,79.9063" fill="#FFFFFF"/><rect fill="none" height="758.91" rx="12.5" ry="12.5" style="stroke:#000000;stroke-width:1;" width="1171" x="12" y="58.6094"/><line style="stroke:#000000;stroke-width:1;" x1="12" x2="1183" y1="79.9063" y2="79.9063"/><text fill="#000000" font-family="Verdana" font-size="14" lengthAdjust="spacing" textLength="73.5957" x="560.7021" y="75.6045">NodeState</text></g><g><rect fill="#FFFFFF" height="50.2656" rx="12.5" ry="12.5" style="stroke:#000000;stroke-width:1;" width="119.7852" x="696.11" y="93.6094"/><line style="stroke:#000000;stroke-width:1;" x1="696.11" x2="815.8952" y1="119.9063" y2="119.9063"/><text fill="#000000" font-family="Verdana" font-size="14" lengthAdjust="spacing" textLength="55.5352" x="728.235" y="111.6045">HIDDEN</text><text fill="#000000" font-family="Verdana" font-size="12" lengthAdjust="spacing" textLength="99.7852" x="701.11" y="136.0449">Not in projection</text></g><g><rect fill="#FFFFFF" height="64.2344" rx="12.5" ry="12.5" style="stroke:#000000;stroke-width:1;" width="106.0215" x="290.99" y="249.2894"/><line style="stroke:#000000;stroke-width:1;" x1="290.99" x2="397.0115" y1="275.5862" y2="275.5862"/><text fill="#000000" font-family="Verdana" font-size="14" lengthAdjust="spacing" textLength="82.9268" x="302.5374" y="267.2845">COLLAPSED</text><text fill="#000000" font-family="Verdana" font-size="12" lengthAdjust="spacing" textLength="86.0215" x="295.99" y="291.7249">Metadata only</text><text fill="#000000" font-family="Verdana" font-size="12" lengthAdjust="spacing" textLength="69.375" x="295.99" y="305.6937">~50 tokens</text></g><g><rect fill="#FFFFFF" height="64.2344" rx="12.5" ry="12.5" style="stroke:#000000;stroke-width:1;" width="115.959" x="650.02" y="737.2894"/><line style="stroke:#000000;stroke-width:1;" x1="650.02" x2="765.979" y1="763.5863" y2="763.5863"/><text fill="#000000" font-family="Verdana" font-size="14" lengthAdjust="spacing" textLength="71.1484" x="672.4253" y="755.2845">SUMMARY</text><text fill="#000000" font-family="Verdana" font-size="12" lengthAdjust="spacing" textLength="95.959" x="655.02" y="779.7249">Agent summary</text><text fill="#000000" font-family="Verdana" font-size="12" lengthAdjust="spacing" textLength="93.5684" x="655.02" y="793.6937">Variable tokens</text></g><g><rect fill="#FFFFFF" height="64.2344" rx="12.5" ry="12.5" style="stroke:#000000;stroke-width:1;" width="120.8867" x="570.56" y="574.6194"/><line style="stroke:#000000;stroke-width:1;" x1="570.56" x2="691.4467" y1="600.9163" y2="600.9163"/><text fill="#000000" font-family="Verdana" font-size="14" lengthAdjust="spacing" textLength="58.5703" x="601.7182" y="592.6145">DETAILS</text><text fill="#000000" font-family="Verdana" font-size="12" lengthAdjust="spacing" textLength="70.9336" x="575.56" y="617.0549">Full content</text><text fill="#000000" font-family="Verdana" font-size="12" lengthAdjust="spacing" textLength="100.8867" x="575.56" y="631.0237">Respects budget</text></g><g><rect fill="#FFFFFF" height="64.2344" rx="12.5" ry="12.5" style="stroke:#000000;stroke-width:1;" width="137.2754" x="840.36" y="411.9594"/><line style="stroke:#000000;stroke-width:1;" x1="840.36" x2="977.6354" y1="438.2562" y2="438.2562"/><text fill="#000000" font-family="Verdana" font-size="14" lengthAdjust="spacing" textLength="25.1768" x="896.4093" y="429.9545">ALL</text><text fill="#000000" font-family="Verdana" font-size="12" lengthAdjust="spacing" textLength="117.2754" x="845.36" y="454.3949">Summary + Details</text><text fill="#000000" font-family="Verdana" font-size="12" lengthAdjust="spacing" textLength="78.0703" x="845.36" y="468.3637">Max visibility</text></g><ellipse cx="795" cy="444.0694" fill="#FFFFFF" rx="10" ry="10" style="stroke:#000000;stroke-width:1;"/><g class="entity" data-qualified-name="GMN2" data-source-line="43" id="ent0003"><path d="M1199.18,75.9094 L1199.18,114.7494 L816.37,118.7494 L1199.18,122.7494 L1199.18,161.5734 A0,0 0 0 0 1199.18,161.5734 L1436.8192,161.5734 A0,0 0 0 0 1436.8192,161.5734 L1436.8192,85.9094 L1426.8192,75.9094 L1199.18,75.9094 A0,0 0 0 0 1199.18,75.9094" fill="#FFFFFF" style="stroke:#000000;stroke-width:1;"/><path d="M1426.8192,75.9094 L1426.8192,85.9094 L1436.8192,85.9094 L1426.8192,75.9094" fill="#FFFFFF" style="stroke:#000000;stroke-width:1;"/><text fill="#000000" font-family="Verdana" font-size="13" font-weight="bold" lengthAdjust="spacing" textLength="57.0591" x="1205.18" y="92.9763">HIDDEN</text><text fill="#000000" font-family="Verdana" font-size="13" lengthAdjust="spacing" textLength="143" x="1205.18" y="108.1091">- Node exists in graph</text><text fill="#000000" font-family="Verdana" font-size="13" lengthAdjust="spacing" textLength="216.6392" x="1205.18" y="123.2419">- Still ticked (async ops continue)</text><text fill="#000000" font-family="Verdana" font-size="13" lengthAdjust="spacing" textLength="181.6826" x="1205.18" y="138.3747">- Not rendered to projection</text><text fill="#000000" font-family="Verdana" font-size="13" lengthAdjust="spacing" textLength="142.3589" x="1205.18" y="153.5075">- Children also hidden</text></g><g class="entity" data-qualified-name="GMN5" data-source-line="51" id="ent0006"><path d="M1198.62,238.5794 L1198.62,324.2434 L1413.3759,324.2434 L1413.3759,248.5794 L1403.3759,238.5794 L1198.62,238.5794" fill="#FFFFFF" style="stroke:#000000;stroke-width:1;"/><path d="M1403.3759,238.5794 L1403.3759,248.5794 L1413.3759,248.5794 L1403.3759,238.5794" fill="#FFFFFF" style="stroke:#000000;stroke-width:1;"/><text fill="#000000" font-family="Verdana" font-size="13" font-weight="bold" lengthAdjust="spacing" textLength="85.7822" x="1204.62" y="255.6463">COLLAPSED</text><text fill="#000000" font-family="Verdana" font-size="13" lengthAdjust="spacing" textLength="120.0024" x="1204.62" y="270.7791">- Minimal footprint</text><text fill="#000000" font-family="Verdana" font-size="13" lengthAdjust="spacing" textLength="193.7559" x="1204.62" y="285.9119">- Type + ID + basic metadata</text><text fill="#000000" font-family="Verdana" font-size="13" lengthAdjust="spacing" textLength="122.9668" x="1204.62" y="301.0447">- Token info shown</text><text fill="#000000" font-family="Verdana" font-size="13" lengthAdjust="spacing" textLength="158.7866" x="1204.62" y="316.1775">- Children NOT rendered</text></g><g class="entity" data-qualified-name="GMN8" data-source-line="59" id="ent0009"><path d="M1199.4,726.5694 L1199.4,765.3994 L766.39,769.3994 L1199.4,773.3994 L1199.4,812.2334 A0,0 0 0 0 1199.4,812.2334 L1424.6041,812.2334 A0,0 0 0 0 1424.6041,812.2334 L1424.6041,736.5694 L1414.6041,726.5694 L1199.4,726.5694 A0,0 0 0 0 1199.4,726.5694" fill="#FFFFFF" style="stroke:#000000;stroke-width:1;"/><path d="M1414.6041,726.5694 L1414.6041,736.5694 L1424.6041,736.5694 L1414.6041,726.5694" fill="#FFFFFF" style="stroke:#000000;stroke-width:1;"/><text fill="#000000" font-family="Verdana" font-size="13" font-weight="bold" lengthAdjust="spacing" textLength="75.2769" x="1205.4" y="743.6363">SUMMARY</text><text fill="#000000" font-family="Verdana" font-size="13" lengthAdjust="spacing" textLength="184.6152" x="1205.4" y="758.7691">- Agent-generated summary</text><text fill="#000000" font-family="Verdana" font-size="13" lengthAdjust="spacing" textLength="183.4028" x="1205.4" y="773.9019">- Truncated to token budget</text><text fill="#000000" font-family="Verdana" font-size="13" lengthAdjust="spacing" textLength="158.7866" x="1205.4" y="789.0347">- Children NOT rendered</text><text fill="#000000" font-family="Verdana" font-size="13" lengthAdjust="spacing" textLength="204.2041" x="1205.4" y="804.1675">- "[no summary]" if unavailable</text></g><g class="entity" data-qualified-name="GMN11" data-source-line="67" id="ent0012"><path d="M1201.97,563.9094 L1201.97,649.5734 L1382.0359,649.5734 L1382.0359,573.9094 L1372.0359,563.9094 L1201.97,563.9094" fill="#FFFFFF" style="stroke:#000000;stroke-width:1;"/><path d="M1372.0359,563.9094 L1372.0359,573.9094 L1382.0359,573.9094 L1372.0359,563.9094" fill="#FFFFFF" style="stroke:#000000;stroke-width:1;"/><text fill="#000000" font-family="Verdana" font-size="13" font-weight="bold" lengthAdjust="spacing" textLength="61.0835" x="1207.97" y="580.9763">DETAILS</text><text fill="#000000" font-family="Verdana" font-size="13" lengthAdjust="spacing" textLength="149.2271" x="1207.97" y="596.1091">- Full content rendered</text><text fill="#000000" font-family="Verdana" font-size="13" lengthAdjust="spacing" textLength="159.0659" x="1207.97" y="611.2419">- Respects token budget</text><text fill="#000000" font-family="Verdana" font-size="13" lengthAdjust="spacing" textLength="157.0283" x="1207.97" y="626.3747">- Children ARE rendered</text><text fill="#000000" font-family="Verdana" font-size="13" lengthAdjust="spacing" textLength="116.27" x="1207.97" y="641.5075">- Uses child_order</text></g><g class="entity" data-qualified-name="GMN14" data-source-line="75" id="ent0015"><path d="M1202.44,401.2394 L1202.44,486.9034 L1427.5616,486.9034 L1427.5616,411.2394 L1417.5616,401.2394 L1202.44,401.2394" fill="#FFFFFF" style="stroke:#000000;stroke-width:1;"/><path d="M1417.5616,401.2394 L1417.5616,411.2394 L1427.5616,411.2394 L1417.5616,401.2394" fill="#FFFFFF" style="stroke:#000000;stroke-width:1;"/><text fill="#000000" font-family="Verdana" font-size="13" font-weight="bold" lengthAdjust="spacing" textLength="26.6284" x="1208.44" y="418.3063">ALL</text><text fill="#000000" font-family="Verdana" font-size="13" lengthAdjust="spacing" textLength="204.1216" x="1208.44" y="433.4391">- Summary + Details combined</text><text fill="#000000" font-family="Verdana" font-size="13" lengthAdjust="spacing" textLength="152.2676" x="1208.44" y="448.5719">- Maximum information</text><text fill="#000000" font-family="Verdana" font-size="13" lengthAdjust="spacing" textLength="157.0283" x="1208.44" y="463.7047">- Children ARE rendered</text><text fill="#000000" font-family="Verdana" font-size="13" lengthAdjust="spacing" textLength="174.7637" x="1208.44" y="478.8375">- Includes traces/metadata</text></g><!--link *start*NS to D--><g class="link" data-entity-1="ent0002" data-entity-2="ent0006" data-link-type="dependency" data-source-line="14" id="lnk3"><path d="M790.01,453.1094 C783.71,462.5994 771.99,478.1794 758,486.9094 C715.36,513.4894 683.29,480.1794 649,516.9094 C634.72,532.1994 630.6858,549.5853 629.8458,568.5253" fill="none" id="*start*NS-to-D" style="stroke:#000000;stroke-width:1;"/><polygon fill="#000000" points="629.58,574.5194,633.9748,565.7054,629.8015,569.5243,625.9827,565.351,629.58,574.5194" style="stroke:#000000;stroke-width:1;"/><text fill="#000000" font-family="Verdana" font-size="13" lengthAdjust="spacing" textLength="45.7412" x="650" y="529.9763">default</text></g><!--link H to C--><g class="link" data-entity-1="ent0003" data-entity-2="ent0004" data-link-type="dependency" data-source-line="16" id="lnk4"><path d="M695.98,121.0294 C592.12,124.6494 385.68,138.5094 341,191.5794 C327.88,207.1594 327.7636,224.4378 332.0136,243.1878" fill="none" id="H-to-C" style="stroke:#000000;stroke-width:1;"/><polygon fill="#000000" points="333.34,249.0394,335.2515,239.3778,332.2347,244.1631,327.4494,241.1463,333.34,249.0394" style="stroke:#000000;stroke-width:1;"/><text fill="#000000" font-family="Verdana" font-size="13" lengthAdjust="spacing" textLength="142.9048" x="342" y="204.6463">SetState(COLLAPSED)</text></g><!--link C to H--><g class="link" data-entity-1="ent0004" data-entity-2="ent0003" data-link-type="dependency" data-source-line="21" id="lnk8"><path d="M290.57,267.7794 C239.37,253.2394 174.1,226.7594 205,191.5794 C237.04,155.0794 553.6313,131.9278 689.8313,123.5478" fill="none" id="C-to-H" style="stroke:#000000;stroke-width:1;"/><polygon fill="#000000" points="695.82,123.1794,686.5913,119.7396,690.8294,123.4864,687.0826,127.7245,695.82,123.1794" style="stroke:#000000;stroke-width:1;"/><text fill="#000000" font-family="Verdana" font-size="13" lengthAdjust="spacing" textLength="117.4697" x="206" y="204.6463">SetState(HIDDEN)</text></g><!--link H to S--><g class="link" data-entity-1="ent0003" data-entity-2="ent0005" data-link-type="dependency" data-source-line="17" id="lnk5"><path d="M695.71,120.9194 C527.11,125.8094 63,151.0394 63,280.4094 C63,280.4094 63,280.4094 63,607.7394 C63,728.0394 484.8564,758.6827 643.6264,766.0127" fill="none" id="H-to-S" style="stroke:#000000;stroke-width:1;"/><polygon fill="#000000" points="649.62,766.2894,640.814,761.8786,644.6253,766.0588,640.4451,769.8701,649.62,766.2894" style="stroke:#000000;stroke-width:1;"/><text fill="#000000" font-family="Verdana" font-size="13" lengthAdjust="spacing" textLength="131.9678" x="64" y="448.6363">SetState(SUMMARY)</text></g><!--link S to H--><g class="link" data-entity-1="ent0005" data-entity-2="ent0003" data-link-type="dependency" data-source-line="26" id="lnk12"><path d="M766.39,761.3694 C875.07,746.9494 1101.58,710.1894 1148,649.5694 C1171.15,619.3394 1163.12,598.8494 1148,563.9094 C1128.14,518.0294 1085.86,532.7894 1066,486.9094 C1050.88,451.9694 1056.78,438.1794 1066,401.2394 C1075.39,363.6294 1097.61,361.8594 1107,324.2394 C1116.22,287.2994 1129.19,269.5194 1107,238.5794 C1040.54,145.9094 903.8315,124.9184 822.3315,120.5784" fill="none" id="S-to-H" style="stroke:#000000;stroke-width:1;"/><polygon fill="#000000" points="816.34,120.2594,825.1146,124.7323,821.3329,120.5253,825.54,116.7436,816.34,120.2594" style="stroke:#000000;stroke-width:1;"/><text fill="#000000" font-family="Verdana" font-size="13" lengthAdjust="spacing" textLength="117.4697" x="1067" y="448.6363">SetState(HIDDEN)</text></g><!--link H to D--><g class="link" data-entity-1="ent0003" data-entity-2="ent0006" data-link-type="dependency" data-source-line="18" id="lnk6"><path d="M752.27,144.2394 C747.37,184.9094 743.1,267.5294 778,324.2394 C790.6,344.7094 811.66,333.0494 823,354.2394 C826.57,360.8994 826.88,364.7594 823,371.2394 C808.5,395.4694 786.98,381.2894 767,401.2394 C736.43,431.7894 754.1,459.1294 721,486.9094 C688.38,514.2794 654.96,482.3994 630,516.9094 C618.25,533.1494 617.6348,549.9029 620.9148,568.2629" fill="none" id="H-to-D" style="stroke:#000000;stroke-width:1;"/><polygon fill="#000000" points="621.97,574.1694,624.3249,564.6062,621.0907,569.2473,616.4496,566.0131,621.97,574.1694" style="stroke:#000000;stroke-width:1;"/><text fill="#000000" font-family="Verdana" font-size="13" lengthAdjust="spacing" textLength="120.2881" x="826" y="367.3063">SetState(DETAILS)</text></g><!--link D to H--><g class="link" data-entity-1="ent0006" data-entity-2="ent0003" data-link-type="dependency" data-source-line="31" id="lnk16"><path d="M613.97,574.3594 C606.56,556.0594 601.98,533.4094 614,516.9094 C639.57,481.7994 681.43,522.0194 707,486.9094 C718.21,471.5194 719.83,415.3094 707,401.2394 C657.97,347.4894 430.03,424.9894 381,371.2394 C375.91,365.6594 377.34,360.8494 381,354.2394 C390.41,337.2594 613.8468,203.8058 709.4268,147.2258" fill="none" id="D-to-H" style="stroke:#000000;stroke-width:1;"/><polygon fill="#000000" points="714.59,144.1694,704.8076,145.3119,710.2874,146.7164,708.8829,152.1961,714.59,144.1694" style="stroke:#000000;stroke-width:1;"/><text fill="#000000" font-family="Verdana" font-size="13" lengthAdjust="spacing" textLength="117.4697" x="382" y="367.3063">SetState(HIDDEN)</text></g><!--link H to A--><g class="link" data-entity-1="ent0003" data-entity-2="ent0007" data-link-type="dependency" data-source-line="19" id="lnk7"><path d="M816.07,143.1494 C859.59,162.8094 917.04,194.7494 954,238.5794 C994.14,286.1694 1026,315.1394 999,371.2394 C991.28,387.2694 982.7837,397.1527 968.8137,408.0327" fill="none" id="H-to-A" style="stroke:#000000;stroke-width:1;"/><polygon fill="#000000" points="964.08,411.7194,973.6384,409.3452,968.0248,408.6471,968.7228,403.0335,964.08,411.7194" style="stroke:#000000;stroke-width:1;"/><text fill="#000000" font-family="Verdana" font-size="13" lengthAdjust="spacing" textLength="89.2798" x="1009" y="285.9763">SetState(ALL)</text></g><!--link A to H--><g class="link" data-entity-1="ent0007" data-entity-2="ent0003" data-link-type="dependency" data-source-line="36" id="lnk20"><path d="M962.12,411.6294 C984,394.7294 1000.92,373.4694 985,354.2394 C939.42,299.1894 881.11,370.9494 827,324.2394 C799.12,300.1794 773.6307,198.9422 762.6007,150.0622" fill="none" id="A-to-H" style="stroke:#000000;stroke-width:1;"/><polygon fill="#000000" points="761.28,144.2094,759.3592,153.8691,762.3806,149.0867,767.163,152.1082,761.28,144.2094" style="stroke:#000000;stroke-width:1;"/><text fill="#000000" font-family="Verdana" font-size="13" lengthAdjust="spacing" textLength="117.4697" x="828" y="285.9763">SetState(HIDDEN)</text></g><!--link C to S--><g class="link" data-entity-1="ent0004" data-entity-2="ent0005" data-link-type="dependency" data-source-line="22" id="lnk9"><path d="M323.84,313.9194 C295.03,363.2994 249.46,460.8294 287,533.9094 C358.87,673.8194 546.3828,733.3539 644.0328,755.8239" fill="none" id="C-to-S" style="stroke:#000000;stroke-width:1;"/><polygon fill="#000000" points="649.88,757.1694,642.0062,751.253,645.0073,756.0481,640.2122,759.0493,649.88,757.1694" style="stroke:#000000;stroke-width:1;"/><text fill="#000000" font-family="Verdana" font-size="13" lengthAdjust="spacing" textLength="131.9678" x="288" y="529.9763">SetState(SUMMARY)</text></g><!--link S to C--><g class="link" data-entity-1="ent0005" data-entity-2="ent0004" data-link-type="dependency" data-source-line="27" id="lnk13"><path d="M649.55,767.1194 C523.39,760.6794 228.76,724.9594 127,533.9094 C108.15,498.5194 173.12,512.4794 204,486.9094 C257.57,442.5494 246.88,411.0494 287,354.2394 C296.55,340.7194 303.9847,331.0009 313.9147,318.6809" fill="none" id="S-to-C" style="stroke:#000000;stroke-width:1;"/><polygon fill="#000000" points="317.68,314.0094,308.9178,318.5064,314.5423,317.9023,315.1464,323.5268,317.68,314.0094" style="stroke:#000000;stroke-width:1;"/><text fill="#000000" font-family="Verdana" font-size="13" lengthAdjust="spacing" textLength="142.9048" x="128" y="529.9763">SetState(COLLAPSED)</text></g><!--link C to D--><g class="link" data-entity-1="ent0004" data-entity-2="ent0006" data-link-type="dependency" data-source-line="23" id="lnk10"><path d="M338.14,313.8894 C331.88,357.6194 327.61,436.9794 367,486.9094 C373.8,495.5294 488.8094,545.3993 564.6394,577.6793" fill="none" id="C-to-D" style="stroke:#000000;stroke-width:1;"/><polygon fill="#000000" points="570.16,580.0294,563.4458,572.8239,565.5595,578.071,560.3124,580.1847,570.16,580.0294" style="stroke:#000000;stroke-width:1;"/><text fill="#000000" font-family="Verdana" font-size="13" lengthAdjust="spacing" textLength="120.2881" x="368" y="448.6363">SetState(DETAILS)</text></g><!--link D to C--><g class="link" data-entity-1="ent0006" data-entity-2="ent0004" data-link-type="dependency" data-source-line="32" id="lnk17"><path d="M611.58,574.2394 C577.71,519.7494 509.87,412.6194 493,401.2394 C439.88,365.4194 394.51,419.1794 352,371.2394 C338.44,355.9494 336.2541,338.7897 337.7841,319.9597" fill="none" id="D-to-C" style="stroke:#000000;stroke-width:1;"/><polygon fill="#000000" points="338.27,313.9794,333.5543,322.6259,337.8651,318.963,341.528,323.2738,338.27,313.9794" style="stroke:#000000;stroke-width:1;"/><text fill="#000000" font-family="Verdana" font-size="13" lengthAdjust="spacing" textLength="142.9048" x="556" y="448.6363">SetState(COLLAPSED)</text></g><!--link C to A--><g class="link" data-entity-1="ent0004" data-entity-2="ent0007" data-link-type="dependency" data-source-line="24" id="lnk11"><path d="M397.5,289.4194 C466.72,299.3894 590.48,320.3294 692,354.2394 C708.78,359.8494 711.53,364.7894 728,371.2394 C769.22,387.3994 781.87,384.8494 823,401.2394 C830.87,404.3794 833.5565,405.4176 841.5565,409.0876" fill="none" id="C-to-A" style="stroke:#000000;stroke-width:1;"/><polygon fill="#000000" points="847.01,411.5894,840.4976,404.201,842.4654,409.5045,837.1618,411.4724,847.01,411.5894" style="stroke:#000000;stroke-width:1;"/><text fill="#000000" font-family="Verdana" font-size="13" lengthAdjust="spacing" textLength="89.2798" x="729" y="367.3063">SetState(ALL)</text></g><!--link A to C--><g class="link" data-entity-1="ent0007" data-entity-2="ent0004" data-link-type="dependency" data-source-line="37" id="lnk21"><path d="M850.86,411.4694 C841.73,407.4894 832.26,403.8994 823,401.2394 C701.41,366.3894 660.95,408.2494 540,371.2394 C524.6,366.5294 522.5,361.2594 508,354.2394 C471.48,336.5794 435.1027,320.6045 402.7927,306.8845" fill="none" id="A-to-C" style="stroke:#000000;stroke-width:1;"/><polygon fill="#000000" points="397.27,304.5394,403.9906,311.7389,401.8723,306.4937,407.1175,304.3753,397.27,304.5394" style="stroke:#000000;stroke-width:1;"/><text fill="#000000" font-family="Verdana" font-size="13" lengthAdjust="spacing" textLength="142.9048" x="541" y="367.3063">SetState(COLLAPSED)</text></g><!--link S to D--><g class="link" data-entity-1="ent0005" data-entity-2="ent0006" data-link-type="dependency" data-source-line="28" id="lnk14"><path d="M694.83,736.8994 C687.52,719.8094 678.09,698.3794 669,679.5694 C662.55,666.2294 657.8319,657.039 651.1719,644.599" fill="none" id="S-to-D" style="stroke:#000000;stroke-width:1;"/><polygon fill="#000000" points="648.34,639.3094,649.0614,649.1318,650.6999,643.7174,656.1143,645.3559,648.34,639.3094" style="stroke:#000000;stroke-width:1;"/><text fill="#000000" font-family="Verdana" font-size="13" lengthAdjust="spacing" textLength="120.2881" x="677" y="692.6363">SetState(DETAILS)</text></g><!--link D to S--><g class="link" data-entity-1="ent0006" data-entity-2="ent0005" data-link-type="dependency" data-source-line="33" id="lnk18"><path d="M570.31,631.5494 C538.87,647.6094 510.38,670.5694 528,696.5694 C554.99,736.3994 602.0957,753.0281 643.6257,760.9281" fill="none" id="D-to-S" style="stroke:#000000;stroke-width:1;"/><polygon fill="#000000" points="649.52,762.0494,641.426,756.438,644.6081,761.115,639.9311,764.2971,649.52,762.0494" style="stroke:#000000;stroke-width:1;"/><text fill="#000000" font-family="Verdana" font-size="13" lengthAdjust="spacing" textLength="131.9678" x="529" y="692.6363">SetState(SUMMARY)</text></g><!--link S to A--><g class="link" data-entity-1="ent0005" data-entity-2="ent0007" data-link-type="dependency" data-source-line="29" id="lnk15"><path d="M761.74,736.7894 C777.51,725.5994 793.79,711.9194 806,696.5694 C845.95,646.3494 814.47,605.8994 863,563.9094 C901.97,530.1894 943.63,574.7894 975,533.9094 C989.5,515.0094 978.9705,497.5375 959.6105,480.4675" fill="none" id="S-to-A" style="stroke:#000000;stroke-width:1;"/><polygon fill="#000000" points="955.11,476.4994,959.2153,485.4518,958.8604,479.8061,964.5061,479.4512,955.11,476.4994" style="stroke:#000000;stroke-width:1;"/><text fill="#000000" font-family="Verdana" font-size="13" lengthAdjust="spacing" textLength="89.2798" x="864" y="611.3063">SetState(ALL)</text></g><!--link A to S--><g class="link" data-entity-1="ent0007" data-entity-2="ent0005" data-link-type="dependency" data-source-line="38" id="lnk22"><path d="M954.65,476.3894 C967.21,487.5694 979.22,501.3094 986,516.9094 C1002.81,555.5694 1036.55,552.8894 958,649.5694 C909.44,709.3394 829.5096,739.3117 772.1796,754.5117" fill="none" id="A-to-S" style="stroke:#000000;stroke-width:1;"/><polygon fill="#000000" points="766.38,756.0494,776.1045,757.6093,771.213,754.768,774.0543,749.8765,766.38,756.0494" style="stroke:#000000;stroke-width:1;"/><text fill="#000000" font-family="Verdana" font-size="13" lengthAdjust="spacing" textLength="131.9678" x="1008" y="611.3063">SetState(SUMMARY)</text></g><!--link D to A--><g class="link" data-entity-1="ent0006" data-entity-2="ent0007" data-link-type="dependency" data-source-line="34" id="lnk19"><path d="M691.89,589.3994 C755.72,571.8594 848.61,545.0194 862,533.9094 C879.86,519.0894 889.6694,501.283 897.0694,482.213" fill="none" id="D-to-A" style="stroke:#000000;stroke-width:1;"/><polygon fill="#000000" points="899.24,476.6194,892.2551,483.5628,897.4312,481.2807,899.7132,486.4569,899.24,476.6194" style="stroke:#000000;stroke-width:1;"/><text fill="#000000" font-family="Verdana" font-size="13" lengthAdjust="spacing" textLength="89.2798" x="877" y="529.9763">SetState(ALL)</text></g><!--link A to D--><g class="link" data-entity-1="ent0007" data-entity-2="ent0006" data-link-type="dependency" data-source-line="39" id="lnk23"><path d="M846.5,476.6794 C838.66,480.2894 830.69,483.7794 823,486.9094 C783.54,502.9194 768.96,495.7494 732,516.9094 C705.25,532.2194 683.485,551.1291 664.555,569.9491" fill="none" id="A-to-D" style="stroke:#000000;stroke-width:1;"/><polygon fill="#000000" points="660.3,574.1794,669.5027,570.6706,663.8458,570.6542,663.8623,564.9973,660.3,574.1794" style="stroke:#000000;stroke-width:1;"/><text fill="#000000" font-family="Verdana" font-size="13" lengthAdjust="spacing" textLength="120.2881" x="733" y="529.9763">SetState(DETAILS)</text></g><!--link C to GMN5--><g class="link" data-entity-1="ent0004" data-entity-2="ent0006" data-link-type="association" data-source-line="51" id="lnk7"><path d="M397.45,263.1594 C530,220.6794 883.48,124.3394 1165.5,200.0794 C1194.22,207.7894 1223.13,222.9594 1247.19,238.1294" fill="none" id="C-GMN5" style="stroke:#000000;stroke-width:1;stroke-dasharray:7,7;"/></g><!--link D to GMN11--><g class="link" data-entity-1="ent0006" data-entity-2="ent0012" data-link-type="association" data-source-line="67" id="lnk13"><path d="M686.26,574.2694 C720.71,555.9394 766.69,534.8694 810.5,525.4094 C964.72,492.0994 1014.12,480.9394 1165.5,525.4094 C1191.93,533.1694 1218.06,548.3494 1239.65,563.5094" fill="none" id="D-GMN11" style="stroke:#000000;stroke-width:1;stroke-dasharray:7,7;"/></g><!--link A to GMN14--><g class="link" data-entity-1="ent0007" data-entity-2="ent0015" data-link-type="association" data-source-line="75" id="lnk16"><path d="M942.13,411.7894 C963.25,393.5294 992.27,372.4594 1022.5,362.7394 C1083.01,343.2994 1103.91,347.0694 1165.5,362.7394 C1195.71,370.4294 1226.41,385.5894 1252.07,400.7694" fill="none" id="A-GMN14" style="stroke:#000000;stroke-width:1;stroke-dasharray:7,7;"/></g><g class="legend" data-source-line="82"><rect fill="none" height="128.0781" rx="7.5" ry="7.5" style="stroke:#000000;stroke-width:1;" width="204.5029" x="1220.3162" y="828.5194"/><text fill="#000000" font-family="Verdana" font-size="14" font-weight="bold" lengthAdjust="spacing" textLength="129.6982" x="1225.3162" y="846.5145">Rendering Rules</text><text fill="#000000" font-family="Verdana" font-size="14" lengthAdjust="spacing" textLength="37.0576" x="1229.7664" y="864.8114">State</text><text fill="#000000" font-family="Verdana" font-size="14" lengthAdjust="spacing" textLength="26.3184" x="1321.5936" y="864.8114">Self</text><text fill="#000000" font-family="Verdana" font-size="14" lengthAdjust="spacing" textLength="58.5566" x="1356.8123" y="864.8114">Children</text><text fill="#000000" font-family="Verdana" font-size="14" lengthAdjust="spacing" textLength="55.5352" x="1229.7664" y="881.1082">HIDDEN</text><text fill="#000000" font-family="Verdana" font-size="14" lengthAdjust="spacing" textLength="19.0381" x="1321.5936" y="881.1082">No</text><text fill="#000000" font-family="Verdana" font-size="14" lengthAdjust="spacing" textLength="19.0381" x="1356.8123" y="881.1082">No</text><text fill="#000000" font-family="Verdana" font-size="14" lengthAdjust="spacing" textLength="82.9268" x="1229.7664" y="897.4051">COLLAPSED</text><text fill="#000000" font-family="Verdana" font-size="14" lengthAdjust="spacing" textLength="24.459" x="1321.5936" y="897.4051">Yes</text><text fill="#000000" font-family="Verdana" font-size="14" lengthAdjust="spacing" textLength="19.0381" x="1356.8123" y="897.4051">No</text><text fill="#000000" font-family="Verdana" font-size="14" lengthAdjust="spacing" textLength="71.1484" x="1229.7664" y="913.702">SUMMARY</text><text fill="#000000" font-family="Verdana" font-size="14" lengthAdjust="spacing" textLength="24.459" x="1321.5936" y="913.702">Yes</text><text fill="#000000" font-family="Verdana" font-size="14" lengthAdjust="spacing" textLength="19.0381" x="1356.8123" y="913.702">No</text><text fill="#000000" font-family="Verdana" font-size="14" lengthAdjust="spacing" textLength="58.5703" x="1229.7664" y="929.9989">DETAILS</text><text fill="#000000" font-family="Verdana" font-size="14" lengthAdjust="spacing" textLength="24.459" x="1321.5936" y="929.9989">Yes</text><text fill="#000000" font-family="Verdana" font-size="14" lengthAdjust="spacing" textLength="24.459" x="1356.8123" y="929.9989">Yes</text><text fill="#000000" font-family="Verdana" font-size="14" lengthAdjust="spacing" textLength="25.1768" x="1229.7664" y="946.2957">ALL</text><text fill="#000000" font-family="Verdana" font-size="14" lengthAdjust="spacing" textLength="24.459" x="1321.5936" y="946.2957">Yes</text><text fill="#000000" font-family="Verdana" font-size="14" lengthAdjust="spacing" textLength="24.459" x="1356.8123" y="946.2957">Yes</text><line style="stroke:#000000;stroke-width:1;" x1="1225.3162" x2="1419.8192" y1="851.8163" y2="851.8163"/><line style="stroke:#000000;stroke-width:1;" x1="1225.3162" x2="1419.8192" y1="868.1131" y2="868.1131"/><line style="stroke:#000000;stroke-width:1;" x1="1225.3162" x2="1419.8192" y1="884.41" y2="884.41"/><line style="stroke:#000000;stroke-width:1;" x1="1225.3162" x2="1419.8192" y1="900.7069" y2="900.7069"/><line style="stroke:#000000;stroke-width:1;" x1="1225.3162" x2="1419.8192" y1="917.0038" y2="917.0038"/><line style="stroke:#000000;stroke-width:1;" x1="1225.3162" x2="1419.8192" y1="933.3006" y2="933.3006"/><line style="stroke:#000000;stroke-width:1;" x1="1225.3162" x2="1419.8192" y1="949.5975" y2="949.5975"/><line style="stroke:#000000;stroke-width:1;" x1="1225.3162" x2="1225.3162" y1="851.8163" y2="949.5975"/><line style="stroke:#000000;stroke-width:1;" x1="1317.1434" x2="1317.1434" y1="851.8163" y2="949.5975"/><line style="stroke:#000000;stroke-width:1;" x1="1352.3621" x2="1352.3621" y1="851.8163" y2="949.5975"/><line style="stroke:#000000;stroke-width:1;" x1="1419.8192" x2="1419.8192" y1="851.8163" y2="949.5975"/></g><?plantuml-src XLLHRzem47xFhxYnbyA4jfUzx65Ib52117J2RQMghIQJ6F1mxCXskg9r--sxNDn0GQG2EU4-V_u-dtt71xyHXO1ISQaZjvMwv9ONiEJPTcrDfVF4A6FXu-Me_aIHbru9Y3CldqHYj1VF7eOmDxbWddi1jzB9fLJIxs26GHL5ZkAzTaeFk8CvWpyH07u3F9wawMXEs1Y-uO8Uf8RIcby2jOpUpqokfjFu1nkbD3d1oJFXUSuz1wFLxa7_-_e5lDaAxVOaTZERnOixeZ2an6kXFRYgABX5oYstaYznOyUyT7GTJwQCU2doBYkb8AlthVs3NWXNeZq7oofV2x-dnTCfKMAai4O4Fa6AFgLo3th6d-6fJLI4lFl18mo7tqaZ5ojUAT-aPqpXUfTCUChVHPk0VekpGppiTO-cXsZOqHwD3r4qtc-44mB7Xs1pHlqMFAUQTAecNQgiIvMzamlMgSkwTDCktVGTtRGp6scNRjob6x-Z6tVgnXtP-1j5sk15jNAzyM1MC4R2OD183mRuewbf4C_IuVt6KbnRNcu8O5vY4NYPRKKE5zpjT0QcT5GMKbUY7-WUhD2vi3ZBcxUbF8Ha8rMEE73b36nadWiTuNIeVHsxIyXTk_TWS2QrBBY2bJ6-j59xYbxlIe6rDabnM78dCoX2UsZWki1nFoi3RcD-7vcPNrstfi-wOUGcP3fueNuon45OJ7J-sbaQILlfZAAO1cem-tvnJhj6UlVQl2xqs0EvWahp9-mWTQSwwoubT-6aWxl3hlLMe-rWvtt5Yz5RpeqJUDWr_DDO39-r4fCLlEp1naadH4_5KkgmBdP5MLG57Ouj-EbLEN4oqPcgSdJZBS-4-zoUzDwH4klw1taYEmjQGEerB2eb75bxWURF2vz2hV3HIhuGsjG5linD62ZSNaXylqCN1r2u7QT0E9WMe94GpDDH59qszly3?></g></svg>