<?plantuml 1.2026.1beta5?><svg xmlns="http://www.w3.org/2000/svg" xmlns:xlink="http://www.w3.org/1999/xlink" contentStyleType="text/css" data-diagram-type="CLASS" height="361px" preserveAspectRatio="none" style="width:1348px;height:361px;background:#FFFFFF;" version="1.1" viewBox="0 0 1348 361" width="1348px" zoomAndPan="magnify"><title>ACP Protocol - Content Block Types</title><defs/><g><g class="title" data-source-line="3"><text fill="#000000" font-family="Verdana" font-size="22" font-weight="bold" lengthAdjust="spacing" textLength="438.8828" x="450.0586" y="35.4209">ACP Protocol - Content Block Types</text></g><!--cluster User -> Agent (Prompt)--><g class="cluster" data-qualified-name="User -. Agent .Prompt." data-source-line="5" id="ent0002"><path d="M364.5,57.6094 L551.6563,57.6094 A3.75,3.75 0 0 1 554.1563,60.1094 L561.1563,79.9063 L1338.5,79.9063 A2.5,2.5 0 0 1 1341,82.4063 L1341,215.2994 A2.5,2.5 0 0 1 1338.5,217.7994 L364.5,217.7994 A2.5,2.5 0 0 1 362,215.2994 L362,60.1094 A2.5,2.5 0 0 1 364.5,57.6094" fill="#FFFFFF" style="stroke:#000000;stroke-width:1;"/><line style="stroke:#000000;stroke-width:1;" x1="362" x2="561.1563" y1="79.9063" y2="79.9063"/><text fill="#000000" font-family="Verdana" font-size="14" font-weight="bold" lengthAdjust="spacing" textLength="186.1563" x="366" y="72.6045">User -&gt; Agent (Prompt)</text></g><!--cluster Agent -> User (Response)--><g class="cluster" data-qualified-name="Agent -. User .Response." data-source-line="38" id="ent0008"><path d="M13.5,57.6094 L218.6143,57.6094 A3.75,3.75 0 0 1 221.1143,60.1094 L228.1143,79.9063 L335.5,79.9063 A2.5,2.5 0 0 1 338,82.4063 L338,351.8894 A2.5,2.5 0 0 1 335.5,354.3894 L13.5,354.3894 A2.5,2.5 0 0 1 11,351.8894 L11,60.1094 A2.5,2.5 0 0 1 13.5,57.6094" fill="#FFFFFF" style="stroke:#000000;stroke-width:1;"/><line style="stroke:#000000;stroke-width:1;" x1="11" x2="228.1143" y1="79.9063" y2="79.9063"/><text fill="#000000" font-family="Verdana" font-size="14" font-weight="bold" lengthAdjust="spacing" textLength="204.1143" x="15" y="72.6045">Agent -&gt; User (Response)</text></g><!--class TextBlock--><g class="entity" data-qualified-name="User -. Agent .Prompt..TextBlock" data-source-line="6" id="ent0003"><rect fill="#FFFFFF" height="92.8906" rx="2.5" ry="2.5" style="stroke:#000000;stroke-width:1;" width="154.8096" x="377.6" y="100.7594"/><ellipse cx="416.8529" cy="114.7594" fill="#FFFFFF" rx="9" ry="9" style="stroke:#000000;stroke-width:1;"/><path d="M419.8217,120.4 Q419.2436,120.6969 418.6029,120.8375 Q417.9623,120.9937 417.2592,120.9937 Q414.7592,120.9937 413.4311,119.3531 Q412.1186,117.6969 412.1186,114.5719 Q412.1186,111.4469 413.4311,109.7906 Q414.7592,108.1344 417.2592,108.1344 Q417.9623,108.1344 418.6029,108.2906 Q419.2592,108.4469 419.8217,108.7437 L419.8217,111.4625 Q419.1967,110.8844 418.6029,110.6187 Q418.0092,110.3375 417.3842,110.3375 Q416.0404,110.3375 415.3529,111.4156 Q414.6654,112.4781 414.6654,114.5719 Q414.6654,116.6656 415.3529,117.7437 Q416.0404,118.8062 417.3842,118.8062 Q418.0092,118.8062 418.6029,118.5406 Q419.1967,118.2594 419.8217,117.6812 L419.8217,120.4 Z " fill="#000000"/><text fill="#000000" font-family="Verdana" font-size="14" lengthAdjust="spacing" textLength="68.8037" x="434.3529" y="119.6061">TextBlock</text><line style="stroke:#000000;stroke-width:1;" x1="378.6" x2="531.4096" y1="128.7594" y2="128.7594"/><text fill="#000000" font-family="Verdana" font-size="14" lengthAdjust="spacing" textLength="81.1973" x="383.6" y="145.7545">type: "text"</text><text fill="#000000" font-family="Verdana" font-size="14" lengthAdjust="spacing" textLength="77.2324" x="383.6" y="162.0514">text: string</text><text fill="#000000" font-family="Verdana" font-size="14" lengthAdjust="spacing" textLength="142.8096" x="383.6" y="178.3482">annotations?: object</text><line style="stroke:#000000;stroke-width:1;" x1="378.6" x2="531.4096" y1="185.65" y2="185.65"/></g><!--class ImageBlock--><g class="entity" data-qualified-name="User -. Agent .Prompt..ImageBlock" data-source-line="12" id="ent0004"><rect fill="#FFFFFF" height="109.1875" rx="2.5" ry="2.5" style="stroke:#000000;stroke-width:1;" width="135.4707" x="567.26" y="92.6094"/><ellipse cx="591.8523" cy="106.6094" fill="#FFFFFF" rx="9" ry="9" style="stroke:#000000;stroke-width:1;"/><path d="M594.8211,112.25 Q594.243,112.5469 593.6023,112.6875 Q592.9617,112.8438 592.2586,112.8438 Q589.7586,112.8438 588.4305,111.2031 Q587.118,109.5469 587.118,106.4219 Q587.118,103.2969 588.4305,101.6406 Q589.7586,99.9844 592.2586,99.9844 Q592.9617,99.9844 593.6023,100.1406 Q594.2586,100.2969 594.8211,100.5938 L594.8211,103.3125 Q594.1961,102.7344 593.6023,102.4688 Q593.0086,102.1875 592.3836,102.1875 Q591.0398,102.1875 590.3523,103.2656 Q589.6648,104.3281 589.6648,106.4219 Q589.6648,108.5156 590.3523,109.5938 Q591.0398,110.6563 592.3836,110.6563 Q593.0086,110.6563 593.6023,110.3906 Q594.1961,110.1094 594.8211,109.5313 L594.8211,112.25 Z " fill="#000000"/><text fill="#000000" font-family="Verdana" font-size="14" lengthAdjust="spacing" textLength="81.71" x="606.4284" y="111.4561">ImageBlock</text><line style="stroke:#000000;stroke-width:1;" x1="568.26" x2="701.7307" y1="120.6094" y2="120.6094"/><text fill="#000000" font-family="Verdana" font-size="14" lengthAdjust="spacing" textLength="96.9268" x="573.26" y="137.6045">type: "image"</text><text fill="#000000" font-family="Verdana" font-size="14" lengthAdjust="spacing" textLength="123.4707" x="573.26" y="153.9014">mimeType: string</text><text fill="#000000" font-family="Verdana" font-size="14" lengthAdjust="spacing" textLength="91.8887" x="573.26" y="170.1982">data: base64</text><text fill="#000000" font-family="Verdana" font-size="14" lengthAdjust="spacing" textLength="75.3047" x="573.26" y="186.4951">uri?: string</text><line style="stroke:#000000;stroke-width:1;" x1="568.26" x2="701.7307" y1="193.7969" y2="193.7969"/></g><!--class AudioBlock--><g class="entity" data-qualified-name="User -. Agent .Prompt..AudioBlock" data-source-line="19" id="ent0005"><rect fill="#FFFFFF" height="92.8906" rx="2.5" ry="2.5" style="stroke:#000000;stroke-width:1;" width="135.4707" x="737.26" y="100.7594"/><ellipse cx="763.6765" cy="114.7594" fill="#FFFFFF" rx="9" ry="9" style="stroke:#000000;stroke-width:1;"/><path d="M766.6453,120.4 Q766.0671,120.6969 765.4265,120.8375 Q764.7859,120.9937 764.0828,120.9937 Q761.5828,120.9937 760.2546,119.3531 Q758.9421,117.6969 758.9421,114.5719 Q758.9421,111.4469 760.2546,109.7906 Q761.5828,108.1344 764.0828,108.1344 Q764.7859,108.1344 765.4265,108.2906 Q766.0828,108.4469 766.6453,108.7437 L766.6453,111.4625 Q766.0203,110.8844 765.4265,110.6187 Q764.8328,110.3375 764.2078,110.3375 Q762.864,110.3375 762.1765,111.4156 Q761.489,112.4781 761.489,114.5719 Q761.489,116.6656 762.1765,117.7437 Q762.864,118.8062 764.2078,118.8062 Q764.8328,118.8062 765.4265,118.5406 Q766.0203,118.2594 766.6453,117.6812 L766.6453,120.4 Z " fill="#000000"/><text fill="#000000" font-family="Verdana" font-size="14" lengthAdjust="spacing" textLength="77.6563" x="778.6579" y="119.6061">AudioBlock</text><line style="stroke:#000000;stroke-width:1;" x1="738.26" x2="871.7307" y1="128.7594" y2="128.7594"/><text fill="#000000" font-family="Verdana" font-size="14" lengthAdjust="spacing" textLength="92.1143" x="743.26" y="145.7545">type: "audio"</text><text fill="#000000" font-family="Verdana" font-size="14" lengthAdjust="spacing" textLength="123.4707" x="743.26" y="162.0514">mimeType: string</text><text fill="#000000" font-family="Verdana" font-size="14" lengthAdjust="spacing" textLength="91.8887" x="743.26" y="178.3482">data: base64</text><line style="stroke:#000000;stroke-width:1;" x1="738.26" x2="871.7307" y1="185.65" y2="185.65"/></g><!--class ResourceBlock--><g class="entity" data-qualified-name="User -. Agent .Prompt..ResourceBlock" data-source-line="25" id="ent0006"><rect fill="#FFFFFF" height="76.5938" rx="2.5" ry="2.5" style="stroke:#000000;stroke-width:1;" width="222.7314" x="907.63" y="108.9094"/><ellipse cx="963.7438" cy="122.9094" fill="#FFFFFF" rx="9" ry="9" style="stroke:#000000;stroke-width:1;"/><path d="M966.7125,128.55 Q966.1344,128.8469 965.4938,128.9875 Q964.8531,129.1437 964.15,129.1437 Q961.65,129.1437 960.3219,127.5031 Q959.0094,125.8469 959.0094,122.7219 Q959.0094,119.5969 960.3219,117.9406 Q961.65,116.2844 964.15,116.2844 Q964.8531,116.2844 965.4938,116.4406 Q966.15,116.5969 966.7125,116.8937 L966.7125,119.6125 Q966.0875,119.0344 965.4938,118.7687 Q964.9,118.4875 964.275,118.4875 Q962.9313,118.4875 962.2438,119.5656 Q961.5563,120.6281 961.5563,122.7219 Q961.5563,124.8156 962.2438,125.8937 Q962.9313,126.9562 964.275,126.9562 Q964.9,126.9562 965.4938,126.6906 Q966.0875,126.4094 966.7125,125.8312 L966.7125,128.55 Z " fill="#000000"/><text fill="#000000" font-family="Verdana" font-size="14" lengthAdjust="spacing" textLength="103.0039" x="981.2438" y="127.7561">ResourceBlock</text><line style="stroke:#000000;stroke-width:1;" x1="908.63" x2="1129.3614" y1="136.9094" y2="136.9094"/><text fill="#000000" font-family="Verdana" font-size="14" lengthAdjust="spacing" textLength="114.4883" x="913.63" y="153.9045">type: "resource"</text><text fill="#000000" font-family="Verdana" font-size="14" lengthAdjust="spacing" textLength="210.7314" x="913.63" y="170.2014">resource: EmbeddedResource</text><line style="stroke:#000000;stroke-width:1;" x1="908.63" x2="1129.3614" y1="177.5031" y2="177.5031"/></g><!--class ResourceLinkBlock--><g class="entity" data-qualified-name="User -. Agent .Prompt..ResourceLinkBlock" data-source-line="30" id="ent0007"><rect fill="#FFFFFF" height="109.1875" rx="2.5" ry="2.5" style="stroke:#000000;stroke-width:1;" width="159.6738" x="1165.16" y="92.6094"/><ellipse cx="1178.16" cy="106.6094" fill="#FFFFFF" rx="9" ry="9" style="stroke:#000000;stroke-width:1;"/><path d="M1181.1288,112.25 Q1180.5506,112.5469 1179.91,112.6875 Q1179.2694,112.8438 1178.5663,112.8438 Q1176.0663,112.8438 1174.7381,111.2031 Q1173.4256,109.5469 1173.4256,106.4219 Q1173.4256,103.2969 1174.7381,101.6406 Q1176.0663,99.9844 1178.5663,99.9844 Q1179.2694,99.9844 1179.91,100.1406 Q1180.5663,100.2969 1181.1288,100.5938 L1181.1288,103.3125 Q1180.5038,102.7344 1179.91,102.4688 Q1179.3163,102.1875 1178.6913,102.1875 Q1177.3475,102.1875 1176.66,103.2656 Q1175.9725,104.3281 1175.9725,106.4219 Q1175.9725,108.5156 1176.66,109.5938 Q1177.3475,110.6563 1178.6913,110.6563 Q1179.3163,110.6563 1179.91,110.3906 Q1180.5038,110.1094 1181.1288,109.5313 L1181.1288,112.25 Z " fill="#000000"/><text fill="#000000" font-family="Verdana" font-size="14" lengthAdjust="spacing" textLength="131.6738" x="1190.16" y="111.4561">ResourceLinkBlock</text><line style="stroke:#000000;stroke-width:1;" x1="1166.16" x2="1323.8338" y1="120.6094" y2="120.6094"/><text fill="#000000" font-family="Verdana" font-size="14" lengthAdjust="spacing" textLength="146.248" x="1171.16" y="137.6045">type: "resource_link"</text><text fill="#000000" font-family="Verdana" font-size="14" lengthAdjust="spacing" textLength="67.874" x="1171.16" y="153.9014">uri: string</text><text fill="#000000" font-family="Verdana" font-size="14" lengthAdjust="spacing" textLength="89.0586" x="1171.16" y="170.1982">name: string</text><text fill="#000000" font-family="Verdana" font-size="14" lengthAdjust="spacing" textLength="130.9014" x="1171.16" y="186.4951">mimeType?: string</text><line style="stroke:#000000;stroke-width:1;" x1="1166.16" x2="1323.8338" y1="193.7969" y2="193.7969"/></g><!--class AgentTextBlock--><g class="entity" data-qualified-name="Agent -. User .Response..AgentTextBlock" data-source-line="39" id="ent0009"><rect fill="#FFFFFF" height="76.5938" rx="2.5" ry="2.5" style="stroke:#000000;stroke-width:1;" width="138.2432" x="26.88" y="108.9094"/><ellipse cx="39.88" cy="122.9094" fill="#FFFFFF" rx="9" ry="9" style="stroke:#000000;stroke-width:1;"/><path d="M42.8487,128.55 Q42.2706,128.8469 41.63,128.9875 Q40.9894,129.1437 40.2862,129.1437 Q37.7862,129.1437 36.4581,127.5031 Q35.1456,125.8469 35.1456,122.7219 Q35.1456,119.5969 36.4581,117.9406 Q37.7862,116.2844 40.2862,116.2844 Q40.9894,116.2844 41.63,116.4406 Q42.2862,116.5969 42.8487,116.8937 L42.8487,119.6125 Q42.2237,119.0344 41.63,118.7687 Q41.0362,118.4875 40.4112,118.4875 Q39.0675,118.4875 38.38,119.5656 Q37.6925,120.6281 37.6925,122.7219 Q37.6925,124.8156 38.38,125.8937 Q39.0675,126.9562 40.4112,126.9562 Q41.0362,126.9562 41.63,126.6906 Q42.2237,126.4094 42.8487,125.8312 L42.8487,128.55 Z " fill="#000000"/><text fill="#000000" font-family="Verdana" font-size="14" lengthAdjust="spacing" textLength="110.2432" x="51.88" y="127.7561">AgentTextBlock</text><line style="stroke:#000000;stroke-width:1;" x1="27.88" x2="164.1232" y1="136.9094" y2="136.9094"/><text fill="#000000" font-family="Verdana" font-size="14" lengthAdjust="spacing" textLength="81.1973" x="32.88" y="153.9045">type: "text"</text><text fill="#000000" font-family="Verdana" font-size="14" lengthAdjust="spacing" textLength="77.2324" x="32.88" y="170.2014">text: string</text><line style="stroke:#000000;stroke-width:1;" x1="27.88" x2="164.1232" y1="177.5031" y2="177.5031"/></g><!--class DiffBlock--><g class="entity" data-qualified-name="Agent -. User .Response..DiffBlock" data-source-line="44" id="ent0010"><rect fill="#FFFFFF" height="109.1875" rx="2.5" ry="2.5" style="stroke:#000000;stroke-width:1;" width="121.2314" x="200.38" y="92.6094"/><ellipse cx="227.2579" cy="106.6094" fill="#FFFFFF" rx="9" ry="9" style="stroke:#000000;stroke-width:1;"/><path d="M230.2267,112.25 Q229.6486,112.5469 229.0079,112.6875 Q228.3673,112.8438 227.6642,112.8438 Q225.1642,112.8438 223.8361,111.2031 Q222.5236,109.5469 222.5236,106.4219 Q222.5236,103.2969 223.8361,101.6406 Q225.1642,99.9844 227.6642,99.9844 Q228.3673,99.9844 229.0079,100.1406 Q229.6642,100.2969 230.2267,100.5938 L230.2267,103.3125 Q229.6017,102.7344 229.0079,102.4688 Q228.4142,102.1875 227.7892,102.1875 Q226.4454,102.1875 225.7579,103.2656 Q225.0704,104.3281 225.0704,106.4219 Q225.0704,108.5156 225.7579,109.5938 Q226.4454,110.6563 227.7892,110.6563 Q228.4142,110.6563 229.0079,110.3906 Q229.6017,110.1094 230.2267,109.5313 L230.2267,112.25 Z " fill="#000000"/><text fill="#000000" font-family="Verdana" font-size="14" lengthAdjust="spacing" textLength="62.3916" x="242.3419" y="111.4561">DiffBlock</text><line style="stroke:#000000;stroke-width:1;" x1="201.38" x2="320.6114" y1="120.6094" y2="120.6094"/><text fill="#000000" font-family="Verdana" font-size="14" lengthAdjust="spacing" textLength="75.9541" x="206.38" y="137.6045">type: "diff"</text><text fill="#000000" font-family="Verdana" font-size="14" lengthAdjust="spacing" textLength="81.1836" x="206.38" y="153.9014">path: string</text><text fill="#000000" font-family="Verdana" font-size="14" lengthAdjust="spacing" textLength="101.6367" x="206.38" y="170.1982">oldText: string</text><text fill="#000000" font-family="Verdana" font-size="14" lengthAdjust="spacing" textLength="109.2314" x="206.38" y="186.4951">newText: string</text><line style="stroke:#000000;stroke-width:1;" x1="201.38" x2="320.6114" y1="193.7969" y2="193.7969"/></g><!--class TerminalBlock--><g class="entity" data-qualified-name="Agent -. User .Response..TerminalBlock" data-source-line="51" id="ent0011"><rect fill="#FFFFFF" height="76.5938" rx="2.5" ry="2.5" style="stroke:#000000;stroke-width:1;" width="133.0986" x="29.45" y="261.7994"/><ellipse cx="44.9" cy="275.7994" fill="#FFFFFF" rx="9" ry="9" style="stroke:#000000;stroke-width:1;"/><path d="M47.8687,281.44 Q47.2906,281.7369 46.65,281.8775 Q46.0093,282.0337 45.3062,282.0337 Q42.8062,282.0337 41.4781,280.3931 Q40.1656,278.7369 40.1656,275.6119 Q40.1656,272.4869 41.4781,270.8306 Q42.8062,269.1744 45.3062,269.1744 Q46.0093,269.1744 46.65,269.3306 Q47.3062,269.4869 47.8687,269.7837 L47.8687,272.5025 Q47.2437,271.9244 46.65,271.6587 Q46.0562,271.3775 45.4312,271.3775 Q44.0875,271.3775 43.4,272.4556 Q42.7125,273.5181 42.7125,275.6119 Q42.7125,277.7056 43.4,278.7837 Q44.0875,279.8462 45.4312,279.8462 Q46.0562,279.8462 46.65,279.5806 Q47.2437,279.2994 47.8687,278.7212 L47.8687,281.44 Z " fill="#000000"/><text fill="#000000" font-family="Verdana" font-size="14" lengthAdjust="spacing" textLength="99.6543" x="57.4444" y="280.6461">TerminalBlock</text><line style="stroke:#000000;stroke-width:1;" x1="30.45" x2="161.5486" y1="289.7994" y2="289.7994"/><text fill="#000000" font-family="Verdana" font-size="14" lengthAdjust="spacing" textLength="112.0479" x="35.45" y="306.7945">type: "terminal"</text><text fill="#000000" font-family="Verdana" font-size="14" lengthAdjust="spacing" textLength="121.0986" x="35.45" y="323.0914">terminalId: string</text><line style="stroke:#000000;stroke-width:1;" x1="30.45" x2="161.5486" y1="330.3931" y2="330.3931"/></g><g class="entity" data-qualified-name="GMN12" data-source-line="58" id="ent0013"><path d="M389.61,287.5294 L389.61,312.6622 A0,0 0 0 0 389.61,312.6622 L644.3878,312.6622 A0,0 0 0 0 644.3878,312.6622 L644.3878,297.5294 L634.3878,287.5294 L530.29,287.5294 L592.73,202.2494 L522.29,287.5294 L389.61,287.5294 A0,0 0 0 0 389.61,287.5294" fill="#FFFFFF" style="stroke:#000000;stroke-width:1;"/><path d="M634.3878,287.5294 L634.3878,297.5294 L644.3878,297.5294 L634.3878,287.5294" fill="#FFFFFF" style="stroke:#000000;stroke-width:1;"/><text fill="#000000" font-family="Verdana" font-size="13" lengthAdjust="spacing" textLength="233.7778" x="395.61" y="304.5963">Requires: promptCapabilities.image</text></g><g class="entity" data-qualified-name="GMN15" data-source-line="62" id="ent0016"><path d="M679.85,287.5294 L679.85,312.6622 A0,0 0 0 0 679.85,312.6622 L930.1591,312.6622 A0,0 0 0 0 930.1591,312.6622 L930.1591,297.5294 L920.1591,287.5294 L809,287.5294 L805,193.8794 L801,287.5294 L679.85,287.5294 A0,0 0 0 0 679.85,287.5294" fill="#FFFFFF" style="stroke:#000000;stroke-width:1;"/><path d="M920.1591,287.5294 L920.1591,297.5294 L930.1591,297.5294 L920.1591,287.5294" fill="#FFFFFF" style="stroke:#000000;stroke-width:1;"/><text fill="#000000" font-family="Verdana" font-size="13" lengthAdjust="spacing" textLength="229.3091" x="685.85" y="304.5963">Requires: promptCapabilities.audio</text></g><g class="entity" data-qualified-name="GMN18" data-source-line="66" id="ent0019"><path d="M965.45,279.9594 L965.45,320.225 A0,0 0 0 0 965.45,320.225 L1300.5574,320.225 A0,0 0 0 0 1300.5574,320.225 L1300.5574,289.9594 L1290.5574,279.9594 L1122.43,279.9594 L1047.47,185.8894 L1114.43,279.9594 L965.45,279.9594 A0,0 0 0 0 965.45,279.9594" fill="#FFFFFF" style="stroke:#000000;stroke-width:1;"/><path d="M1290.5574,279.9594 L1290.5574,289.9594 L1300.5574,289.9594 L1290.5574,279.9594" fill="#FFFFFF" style="stroke:#000000;stroke-width:1;"/><text fill="#000000" font-family="Verdana" font-size="13" lengthAdjust="spacing" textLength="314.1074" x="971.45" y="297.0263">Requires: promptCapabilities.embeddedContext</text><text fill="#000000" font-family="Verdana" font-size="13" lengthAdjust="spacing" textLength="165.1025" x="971.45" y="312.1591">Preferred for @-mentions</text></g><?plantuml-src bLCzJyCm4DtpAuvCPIWJOiX0AOMX4aDLXHavyQKrzKUmBw88zR_ZE4r9IafXiz_TlJlxlRkWDIg4KZAXeuW4IOJfR04BQyZaHi8OPaOJQe9xQV8Df1ybkYWgMRvXAuJusQ65yIrCLtNEoDUfaYvZ-8m0SicSWnItrDJM601vXWHYyd3S0FwKW2Chz2e0J6j3Z8JHRfA0oLun9n_OHGVEkVBD1qX5ZJUiIYXC0zfXvenO0XbpU7CTWCgAIIUZqs9QSM46Mh0Q_tkB3kCIdQbiFZIttOSQtlQMmAFAa7FaRUamuPFGcrz8NwIFn-rpUyDgflhJjq_gVygk8tWZj5SyA3_oCvHU9-n97dB-gtldOG-YA0PAkOURqfBHkZUtaJmzjf76z_HaYnIj4fh9mGcRK3jbSvlpuo_n9aN8395HO8gE9tt24jyguGL8e0mRCMCbouGK9D1T1PT6g3dK53-8lfrtZYXuyJHHpt3dk71ljR3ksthV5XOBj1Ov5CR2tLXvKUkTF3Jy0W00?></g></svg>