<?plantuml 1.2026.1beta5?><svg xmlns="http://www.w3.org/2000/svg" xmlns:xlink="http://www.w3.org/1999/xlink" contentStyleType="text/css" data-diagram-type="CLASS" height="900px" preserveAspectRatio="none" style="width:1498px;height:900px;background:#FFFFFF;" version="1.1" viewBox="0 0 1498 900" width="1498px" zoomAndPan="magnify"><title>ACP Protocol - Message Types Reference</title><defs/><g><g class="title" data-source-line="4"><text fill="#000000" font-family="Verdana" font-size="22" font-weight="bold" lengthAdjust="spacing" textLength="507.5146" x="490.7427" y="35.4209">ACP Protocol - Message Types Reference</text></g><!--cluster Agent Methods (required)--><g class="cluster" data-qualified-name="Agent Methods .required." data-source-line="6" id="ent0002"><path d="M49.5,57.6094 L255.7217,57.6094 A3.75,3.75 0 0 1 258.2217,60.1094 L265.2217,79.9063 L494.5,79.9063 A2.5,2.5 0 0 1 497,82.4063 L497,368.1894 A2.5,2.5 0 0 1 494.5,370.6894 L49.5,370.6894 A2.5,2.5 0 0 1 47,368.1894 L47,60.1094 A2.5,2.5 0 0 1 49.5,57.6094" fill="#FFFFFF" style="stroke:#000000;stroke-width:1;"/><line style="stroke:#000000;stroke-width:1;" x1="47" x2="265.2217" y1="79.9063" y2="79.9063"/><text fill="#000000" font-family="Verdana" font-size="14" font-weight="bold" lengthAdjust="spacing" textLength="205.2217" x="51" y="72.6045">Agent Methods (required)</text></g><!--cluster Agent Methods (optional)--><g class="cluster" data-qualified-name="Agent Methods .optional." data-source-line="30" id="ent0006"><path d="M523.5,57.6094 L727.0762,57.6094 A3.75,3.75 0 0 1 729.5762,60.1094 L736.5762,79.9063 L959.5,79.9063 A2.5,2.5 0 0 1 962,82.4063 L962,368.1894 A2.5,2.5 0 0 1 959.5,370.6894 L523.5,370.6894 A2.5,2.5 0 0 1 521,368.1894 L521,60.1094 A2.5,2.5 0 0 1 523.5,57.6094" fill="#FFFFFF" style="stroke:#000000;stroke-width:1;"/><line style="stroke:#000000;stroke-width:1;" x1="521" x2="736.5762" y1="79.9063" y2="79.9063"/><text fill="#000000" font-family="Verdana" font-size="14" font-weight="bold" lengthAdjust="spacing" textLength="202.5762" x="525" y="72.6045">Agent Methods (optional)</text></g><!--cluster Agent Notifications--><g class="cluster" data-qualified-name="Agent Notifications" data-source-line="61" id="ent0011"><path d="M1121.5,73.9094 L1275.2559,73.9094 A3.75,3.75 0 0 1 1277.7559,76.4094 L1284.7559,96.2062 L1284.5,96.2062 A2.5,2.5 0 0 1 1287,98.7062 L1287,198.9994 A2.5,2.5 0 0 1 1284.5,201.4994 L1121.5,201.4994 A2.5,2.5 0 0 1 1119,198.9994 L1119,76.4094 A2.5,2.5 0 0 1 1121.5,73.9094" fill="#FFFFFF" style="stroke:#000000;stroke-width:1;"/><line style="stroke:#000000;stroke-width:1;" x1="1119" x2="1284.7559" y1="96.2062" y2="96.2062"/><text fill="#000000" font-family="Verdana" font-size="14" font-weight="bold" lengthAdjust="spacing" textLength="152.7559" x="1123" y="88.9045">Agent Notifications</text></g><!--cluster Client Methods--><g class="cluster" data-qualified-name="Client Methods" data-source-line="69" id="ent0013"><path d="M13.5,394.6894 L133.459,394.6894 A3.75,3.75 0 0 1 135.959,397.1894 L142.959,416.9863 L724.5,416.9863 A2.5,2.5 0 0 1 727,419.4863 L727,890.7494 A2.5,2.5 0 0 1 724.5,893.2494 L13.5,893.2494 A2.5,2.5 0 0 1 11,890.7494 L11,397.1894 A2.5,2.5 0 0 1 13.5,394.6894" fill="#FFFFFF" style="stroke:#000000;stroke-width:1;"/><line style="stroke:#000000;stroke-width:1;" x1="11" x2="142.959" y1="416.9863" y2="416.9863"/><text fill="#000000" font-family="Verdana" font-size="14" font-weight="bold" lengthAdjust="spacing" textLength="118.959" x="15" y="409.6845">Client Methods</text></g><!--cluster Session Updates (Notifications)--><g class="cluster" data-qualified-name="Session Updates .Notifications." data-source-line="129" id="ent0022"><path d="M753.5,394.6894 L1003.9229,394.6894 A3.75,3.75 0 0 1 1006.4229,397.1894 L1013.4229,416.9863 L1488.5,416.9863 A2.5,2.5 0 0 1 1491,419.4863 L1491,721.5594 A2.5,2.5 0 0 1 1488.5,724.0594 L753.5,724.0594 A2.5,2.5 0 0 1 751,721.5594 L751,397.1894 A2.5,2.5 0 0 1 753.5,394.6894" fill="#FFFFFF" style="stroke:#000000;stroke-width:1;"/><line style="stroke:#000000;stroke-width:1;" x1="751" x2="1013.4229" y1="416.9863" y2="416.9863"/><text fill="#000000" font-family="Verdana" font-size="14" font-weight="bold" lengthAdjust="spacing" textLength="249.4229" x="755" y="409.6845">Session Updates (Notifications)</text></g><!--class init--><g class="entity" data-qualified-name="Agent Methods .required..init" data-source-line="7" id="ent0003"><rect fill="#FFFFFF" height="109.1875" rx="2.5" ry="2.5" style="stroke:#000000;stroke-width:1;" width="197.2813" x="63.36" y="92.6094"/><ellipse cx="129.0748" cy="106.6094" fill="#FFFFFF" rx="9" ry="9" style="stroke:#000000;stroke-width:1;"/><path d="M132.0436,112.25 Q131.4655,112.5469 130.8248,112.6875 Q130.1842,112.8438 129.4811,112.8438 Q126.9811,112.8438 125.653,111.2031 Q124.3405,109.5469 124.3405,106.4219 Q124.3405,103.2969 125.653,101.6406 Q126.9811,99.9844 129.4811,99.9844 Q130.1842,99.9844 130.8248,100.1406 Q131.4811,100.2969 132.0436,100.5938 L132.0436,103.3125 Q131.4186,102.7344 130.8248,102.4688 Q130.2311,102.1875 129.6061,102.1875 Q128.2623,102.1875 127.5748,103.2656 Q126.8873,104.3281 126.8873,106.4219 Q126.8873,108.5156 127.5748,109.5938 Q128.2623,110.6563 129.6061,110.6563 Q130.2311,110.6563 130.8248,110.3906 Q131.4186,110.1094 132.0436,109.5313 L132.0436,112.25 Z " fill="#000000"/><text fill="#000000" font-family="Verdana" font-size="14" lengthAdjust="spacing" textLength="58.3516" x="146.5748" y="111.4561">initialize</text><line style="stroke:#000000;stroke-width:1;" x1="64.36" x2="259.6413" y1="120.6094" y2="120.6094"/><text fill="#000000" font-family="Verdana" font-size="14" lengthAdjust="spacing" textLength="137.4023" x="69.36" y="137.6045">protocolVersion: int</text><text fill="#000000" font-family="Verdana" font-size="14" lengthAdjust="spacing" textLength="172.4229" x="69.36" y="153.9014">clientCapabilities: object</text><text fill="#000000" font-family="Verdana" font-size="14" lengthAdjust="spacing" textLength="185.2813" x="69.36" y="170.1982">clientInfo: Implementation</text><line style="stroke:#000000;stroke-width:1;" x1="64.36" x2="259.6413" y1="177.5" y2="177.5"/><text fill="#000000" font-family="Verdana" font-size="14" lengthAdjust="spacing" textLength="147.6904" x="69.36" y="194.4951">-&gt; InitializeResponse</text></g><!--class new--><g class="entity" data-qualified-name="Agent Methods .required..new" data-source-line="15" id="ent0004"><rect fill="#FFFFFF" height="92.8906" rx="2.5" ry="2.5" style="stroke:#000000;stroke-width:1;" width="185.0518" x="295.47" y="100.7594"/><ellipse cx="341.5076" cy="114.7594" fill="#FFFFFF" rx="9" ry="9" style="stroke:#000000;stroke-width:1;"/><path d="M344.4763,120.4 Q343.8982,120.6969 343.2576,120.8375 Q342.617,120.9937 341.9138,120.9937 Q339.4138,120.9937 338.0857,119.3531 Q336.7732,117.6969 336.7732,114.5719 Q336.7732,111.4469 338.0857,109.7906 Q339.4138,108.1344 341.9138,108.1344 Q342.617,108.1344 343.2576,108.2906 Q343.9138,108.4469 344.4763,108.7437 L344.4763,111.4625 Q343.8513,110.8844 343.2576,110.6187 Q342.6638,110.3375 342.0388,110.3375 Q340.6951,110.3375 340.0076,111.4156 Q339.3201,112.4781 339.3201,114.5719 Q339.3201,116.6656 340.0076,117.7437 Q340.6951,118.8062 342.0388,118.8062 Q342.6638,118.8062 343.2576,118.5406 Q343.8513,118.2594 344.4763,117.6812 L344.4763,120.4 Z " fill="#000000"/><text fill="#000000" font-family="Verdana" font-size="14" lengthAdjust="spacing" textLength="85.4766" x="359.0076" y="119.6061">session/new</text><line style="stroke:#000000;stroke-width:1;" x1="296.47" x2="479.5218" y1="128.7594" y2="128.7594"/><text fill="#000000" font-family="Verdana" font-size="14" lengthAdjust="spacing" textLength="77.3896" x="301.47" y="145.7545">cwd: string</text><text fill="#000000" font-family="Verdana" font-size="14" lengthAdjust="spacing" textLength="136.9785" x="301.47" y="162.0514">mcpServers?: array</text><line style="stroke:#000000;stroke-width:1;" x1="296.47" x2="479.5218" y1="169.3531" y2="169.3531"/><text fill="#000000" font-family="Verdana" font-size="14" lengthAdjust="spacing" textLength="173.0518" x="301.47" y="186.3482">-&gt; NewSessionResponse</text></g><!--class prompt--><g class="entity" data-qualified-name="Agent Methods .required..prompt" data-source-line="22" id="ent0005"><rect fill="#FFFFFF" height="92.8906" rx="2.5" ry="2.5" style="stroke:#000000;stroke-width:1;" width="176.8555" x="73.57" y="261.7994"/><ellipse cx="105.0622" cy="275.7994" fill="#FFFFFF" rx="9" ry="9" style="stroke:#000000;stroke-width:1;"/><path d="M108.0309,281.44 Q107.4528,281.7369 106.8122,281.8775 Q106.1716,282.0337 105.4684,282.0337 Q102.9684,282.0337 101.6403,280.3931 Q100.3278,278.7369 100.3278,275.6119 Q100.3278,272.4869 101.6403,270.8306 Q102.9684,269.1744 105.4684,269.1744 Q106.1716,269.1744 106.8122,269.3306 Q107.4684,269.4869 108.0309,269.7837 L108.0309,272.5025 Q107.4059,271.9244 106.8122,271.6587 Q106.2184,271.3775 105.5934,271.3775 Q104.2497,271.3775 103.5622,272.4556 Q102.8747,273.5181 102.8747,275.6119 Q102.8747,277.7056 103.5622,278.7837 Q104.2497,279.8462 105.5934,279.8462 Q106.2184,279.8462 106.8122,279.5806 Q107.4059,279.2994 108.0309,278.7212 L108.0309,281.44 Z " fill="#000000"/><text fill="#000000" font-family="Verdana" font-size="14" lengthAdjust="spacing" textLength="107.7617" x="121.1716" y="280.6461">session/prompt</text><line style="stroke:#000000;stroke-width:1;" x1="74.57" x2="249.4255" y1="289.7994" y2="289.7994"/><text fill="#000000" font-family="Verdana" font-size="14" lengthAdjust="spacing" textLength="114.1943" x="79.57" y="306.7945">sessionId: string</text><text fill="#000000" font-family="Verdana" font-size="14" lengthAdjust="spacing" textLength="164.8555" x="79.57" y="323.0914">prompt: ContentBlock[]</text><line style="stroke:#000000;stroke-width:1;" x1="74.57" x2="249.4255" y1="330.3931" y2="330.3931"/><text fill="#000000" font-family="Verdana" font-size="14" lengthAdjust="spacing" textLength="139.877" x="79.57" y="347.3882">-&gt; PromptResponse</text></g><!--class load--><g class="entity" data-qualified-name="Agent Methods .optional..load" data-source-line="31" id="ent0007"><rect fill="#FFFFFF" height="109.1875" rx="2.5" ry="2.5" style="stroke:#000000;stroke-width:1;" width="188.3467" x="536.83" y="92.6094"/><ellipse cx="584.0229" cy="106.6094" fill="#FFFFFF" rx="9" ry="9" style="stroke:#000000;stroke-width:1;"/><path d="M586.9916,112.25 Q586.4135,112.5469 585.7729,112.6875 Q585.1322,112.8438 584.4291,112.8438 Q581.9291,112.8438 580.601,111.2031 Q579.2885,109.5469 579.2885,106.4219 Q579.2885,103.2969 580.601,101.6406 Q581.9291,99.9844 584.4291,99.9844 Q585.1322,99.9844 585.7729,100.1406 Q586.4291,100.2969 586.9916,100.5938 L586.9916,103.3125 Q586.3666,102.7344 585.7729,102.4688 Q585.1791,102.1875 584.5541,102.1875 Q583.2104,102.1875 582.5229,103.2656 Q581.8354,104.3281 581.8354,106.4219 Q581.8354,108.5156 582.5229,109.5938 Q583.2104,110.6563 584.5541,110.6563 Q585.1791,110.6563 585.7729,110.3906 Q586.3666,110.1094 586.9916,109.5313 L586.9916,112.25 Z " fill="#000000"/><text fill="#000000" font-family="Verdana" font-size="14" lengthAdjust="spacing" textLength="86.4609" x="601.5229" y="111.4561">session/load</text><line style="stroke:#000000;stroke-width:1;" x1="537.83" x2="724.1767" y1="120.6094" y2="120.6094"/><text fill="#000000" font-family="Verdana" font-size="14" lengthAdjust="spacing" textLength="114.1943" x="542.83" y="137.6045">sessionId: string</text><text fill="#000000" font-family="Verdana" font-size="14" lengthAdjust="spacing" textLength="77.3896" x="542.83" y="153.9014">cwd: string</text><text fill="#000000" font-family="Verdana" font-size="14" lengthAdjust="spacing" textLength="136.9785" x="542.83" y="170.1982">mcpServers?: array</text><line style="stroke:#000000;stroke-width:1;" x1="537.83" x2="724.1767" y1="177.5" y2="177.5"/><text fill="#000000" font-family="Verdana" font-size="14" lengthAdjust="spacing" textLength="176.3467" x="542.83" y="194.4951">-&gt; LoadSessionResponse</text></g><!--class list--><g class="entity" data-qualified-name="Agent Methods .optional..list" data-source-line="39" id="ent0008"><rect fill="#FFFFFF" height="92.8906" rx="2.5" ry="2.5" style="stroke:#000000;stroke-width:1;" width="186.2822" x="759.86" y="100.7594"/><ellipse cx="810.6998" cy="114.7594" fill="#FFFFFF" rx="9" ry="9" style="stroke:#000000;stroke-width:1;"/><path d="M813.6686,120.4 Q813.0905,120.6969 812.4498,120.8375 Q811.8092,120.9937 811.1061,120.9937 Q808.6061,120.9937 807.278,119.3531 Q805.9655,117.6969 805.9655,114.5719 Q805.9655,111.4469 807.278,109.7906 Q808.6061,108.1344 811.1061,108.1344 Q811.8092,108.1344 812.4498,108.2906 Q813.1061,108.4469 813.6686,108.7437 L813.6686,111.4625 Q813.0436,110.8844 812.4498,110.6187 Q811.8561,110.3375 811.2311,110.3375 Q809.8873,110.3375 809.1998,111.4156 Q808.5123,112.4781 808.5123,114.5719 Q808.5123,116.6656 809.1998,117.7437 Q809.8873,118.8062 811.2311,118.8062 Q811.8561,118.8062 812.4498,118.5406 Q813.0436,118.2594 813.6686,117.6812 L813.6686,120.4 Z " fill="#000000"/><text fill="#000000" font-family="Verdana" font-size="14" lengthAdjust="spacing" textLength="77.1025" x="828.1998" y="119.6061">session/list</text><line style="stroke:#000000;stroke-width:1;" x1="760.86" x2="945.1422" y1="128.7594" y2="128.7594"/><text fill="#000000" font-family="Verdana" font-size="14" lengthAdjust="spacing" textLength="77.3896" x="765.86" y="145.7545">cwd: string</text><text fill="#000000" font-family="Verdana" font-size="14" lengthAdjust="spacing" textLength="100.7275" x="765.86" y="162.0514">cursor?: string</text><line style="stroke:#000000;stroke-width:1;" x1="760.86" x2="945.1422" y1="169.3531" y2="169.3531"/><text fill="#000000" font-family="Verdana" font-size="14" lengthAdjust="spacing" textLength="174.2822" x="765.86" y="186.3482">-&gt; ListSessionsResponse</text></g><!--class mode--><g class="entity" data-qualified-name="Agent Methods .optional..mode" data-source-line="46" id="ent0009"><rect fill="#FFFFFF" height="92.8906" rx="2.5" ry="2.5" style="stroke:#000000;stroke-width:1;" width="162.2334" x="549.88" y="261.7994"/><ellipse cx="567.1972" cy="275.7994" fill="#FFFFFF" rx="9" ry="9" style="stroke:#000000;stroke-width:1;"/><path d="M570.1659,281.44 Q569.5878,281.7369 568.9472,281.8775 Q568.3066,282.0337 567.6034,282.0337 Q565.1034,282.0337 563.7753,280.3931 Q562.4628,278.7369 562.4628,275.6119 Q562.4628,272.4869 563.7753,270.8306 Q565.1034,269.1744 567.6034,269.1744 Q568.3066,269.1744 568.9472,269.3306 Q569.6034,269.4869 570.1659,269.7837 L570.1659,272.5025 Q569.5409,271.9244 568.9472,271.6587 Q568.3534,271.3775 567.7284,271.3775 Q566.3847,271.3775 565.6972,272.4556 Q565.0097,273.5181 565.0097,275.6119 Q565.0097,277.7056 565.6972,278.7837 Q566.3847,279.8462 567.7284,279.8462 Q568.3534,279.8462 568.9472,279.5806 Q569.5409,279.2994 570.1659,278.7212 L570.1659,281.44 Z " fill="#000000"/><text fill="#000000" font-family="Verdana" font-size="14" lengthAdjust="spacing" textLength="124.6396" x="580.1566" y="280.6461">session/set_mode</text><line style="stroke:#000000;stroke-width:1;" x1="550.88" x2="711.1134" y1="289.7994" y2="289.7994"/><text fill="#000000" font-family="Verdana" font-size="14" lengthAdjust="spacing" textLength="114.1943" x="555.88" y="306.7945">sessionId: string</text><text fill="#000000" font-family="Verdana" font-size="14" lengthAdjust="spacing" textLength="102.0742" x="555.88" y="323.0914">modeId: string</text><line style="stroke:#000000;stroke-width:1;" x1="550.88" x2="711.1134" y1="330.3931" y2="330.3931"/><text fill="#000000" font-family="Verdana" font-size="14" lengthAdjust="spacing" textLength="150.2334" x="555.88" y="347.3882">-&gt; SetModeResponse</text></g><!--class model--><g class="entity" data-qualified-name="Agent Methods .optional..model" data-source-line="53" id="ent0010"><rect fill="#FFFFFF" height="92.8906" rx="2.5" ry="2.5" style="stroke:#000000;stroke-width:1;" width="166.123" x="746.94" y="261.7994"/><ellipse cx="764.2572" cy="275.7994" fill="#FFFFFF" rx="9" ry="9" style="stroke:#000000;stroke-width:1;"/><path d="M767.2259,281.44 Q766.6478,281.7369 766.0072,281.8775 Q765.3666,282.0337 764.6634,282.0337 Q762.1634,282.0337 760.8353,280.3931 Q759.5228,278.7369 759.5228,275.6119 Q759.5228,272.4869 760.8353,270.8306 Q762.1634,269.1744 764.6634,269.1744 Q765.3666,269.1744 766.0072,269.3306 Q766.6634,269.4869 767.2259,269.7837 L767.2259,272.5025 Q766.6009,271.9244 766.0072,271.6587 Q765.4134,271.3775 764.7884,271.3775 Q763.4447,271.3775 762.7572,272.4556 Q762.0697,273.5181 762.0697,275.6119 Q762.0697,277.7056 762.7572,278.7837 Q763.4447,279.8462 764.7884,279.8462 Q765.4134,279.8462 766.0072,279.5806 Q766.6009,279.2994 767.2259,278.7212 L767.2259,281.44 Z " fill="#000000"/><text fill="#000000" font-family="Verdana" font-size="14" lengthAdjust="spacing" textLength="128.5293" x="777.2166" y="280.6461">session/set_model</text><line style="stroke:#000000;stroke-width:1;" x1="747.94" x2="912.063" y1="289.7994" y2="289.7994"/><text fill="#000000" font-family="Verdana" font-size="14" lengthAdjust="spacing" textLength="114.1943" x="752.94" y="306.7945">sessionId: string</text><text fill="#000000" font-family="Verdana" font-size="14" lengthAdjust="spacing" textLength="105.9639" x="752.94" y="323.0914">modelId: string</text><line style="stroke:#000000;stroke-width:1;" x1="747.94" x2="912.063" y1="330.3931" y2="330.3931"/><text fill="#000000" font-family="Verdana" font-size="14" lengthAdjust="spacing" textLength="154.123" x="752.94" y="347.3882">-&gt; SetModelResponse</text></g><!--class cancel--><g class="entity" data-qualified-name="Agent Notifications.cancel" data-source-line="62" id="ent0012"><rect fill="#FFFFFF" height="76.5938" rx="2.5" ry="2.5" style="stroke:#000000;stroke-width:1;" width="129.8896" x="1138.06" y="108.9094"/><ellipse cx="1151.06" cy="122.9094" fill="#FFFFFF" rx="9" ry="9" style="stroke:#000000;stroke-width:1;"/><path d="M1154.0288,128.55 Q1153.4506,128.8469 1152.81,128.9875 Q1152.1694,129.1437 1151.4663,129.1437 Q1148.9663,129.1437 1147.6381,127.5031 Q1146.3256,125.8469 1146.3256,122.7219 Q1146.3256,119.5969 1147.6381,117.9406 Q1148.9663,116.2844 1151.4663,116.2844 Q1152.1694,116.2844 1152.81,116.4406 Q1153.4663,116.5969 1154.0288,116.8937 L1154.0288,119.6125 Q1153.4038,119.0344 1152.81,118.7687 Q1152.2163,118.4875 1151.5913,118.4875 Q1150.2475,118.4875 1149.56,119.5656 Q1148.8725,120.6281 1148.8725,122.7219 Q1148.8725,124.8156 1149.56,125.8937 Q1150.2475,126.9562 1151.5913,126.9562 Q1152.2163,126.9562 1152.81,126.6906 Q1153.4038,126.4094 1154.0288,125.8312 L1154.0288,128.55 Z " fill="#000000"/><text fill="#000000" font-family="Verdana" font-size="14" lengthAdjust="spacing" textLength="101.8896" x="1163.06" y="127.7561">session/cancel</text><line style="stroke:#000000;stroke-width:1;" x1="1139.06" x2="1266.9496" y1="136.9094" y2="136.9094"/><text fill="#000000" font-family="Verdana" font-size="14" lengthAdjust="spacing" textLength="114.1943" x="1144.06" y="153.9045">sessionId: string</text><line style="stroke:#000000;stroke-width:1;" x1="1139.06" x2="1266.9496" y1="161.2062" y2="161.2062"/><text fill="#000000" font-family="Verdana" font-size="14" lengthAdjust="spacing" textLength="96.708" x="1144.06" y="178.2014">(no response)</text></g><!--class perm--><g class="entity" data-qualified-name="Client Methods.perm" data-source-line="70" id="ent0014"><rect fill="#FFFFFF" height="109.1875" rx="2.5" ry="2.5" style="stroke:#000000;stroke-width:1;" width="221.7646" x="51.12" y="437.8394"/><ellipse cx="64.12" cy="451.8394" fill="#FFFFFF" rx="9" ry="9" style="stroke:#000000;stroke-width:1;"/><path d="M67.0888,457.48 Q66.5106,457.7769 65.87,457.9175 Q65.2294,458.0737 64.5263,458.0737 Q62.0263,458.0737 60.6981,456.4331 Q59.3856,454.7769 59.3856,451.6519 Q59.3856,448.5269 60.6981,446.8706 Q62.0263,445.2144 64.5263,445.2144 Q65.2294,445.2144 65.87,445.3706 Q66.5263,445.5269 67.0888,445.8237 L67.0888,448.5425 Q66.4638,447.9644 65.87,447.6987 Q65.2763,447.4175 64.6513,447.4175 Q63.3075,447.4175 62.62,448.4956 Q61.9325,449.5581 61.9325,451.6519 Q61.9325,453.7456 62.62,454.8237 Q63.3075,455.8862 64.6513,455.8862 Q65.2763,455.8862 65.87,455.6206 Q66.4638,455.3394 67.0888,454.7612 L67.0888,457.48 Z " fill="#000000"/><text fill="#000000" font-family="Verdana" font-size="14" lengthAdjust="spacing" textLength="193.7646" x="76.12" y="456.6861">session/request_permission</text><line style="stroke:#000000;stroke-width:1;" x1="52.12" x2="271.8846" y1="465.8394" y2="465.8394"/><text fill="#000000" font-family="Verdana" font-size="14" lengthAdjust="spacing" textLength="114.1943" x="57.12" y="482.8345">sessionId: string</text><text fill="#000000" font-family="Verdana" font-size="14" lengthAdjust="spacing" textLength="104.9521" x="57.12" y="499.1314">toolCall: object</text><text fill="#000000" font-family="Verdana" font-size="14" lengthAdjust="spacing" textLength="194.6328" x="57.12" y="515.4282">options: PermissionOption[]</text><line style="stroke:#000000;stroke-width:1;" x1="52.12" x2="271.8846" y1="522.73" y2="522.73"/><text fill="#000000" font-family="Verdana" font-size="14" lengthAdjust="spacing" textLength="165.3545" x="57.12" y="539.7251">-&gt; PermissionResponse</text></g><!--class read--><g class="entity" data-qualified-name="Client Methods.read" data-source-line="78" id="ent0015"><rect fill="#FFFFFF" height="125.4844" rx="2.5" ry="2.5" style="stroke:#000000;stroke-width:1;" width="154.0029" x="355" y="429.6894"/><ellipse cx="374.3136" cy="443.6894" fill="#FFFFFF" rx="9" ry="9" style="stroke:#000000;stroke-width:1;"/><path d="M377.2824,449.33 Q376.7042,449.6269 376.0636,449.7675 Q375.423,449.9238 374.7199,449.9238 Q372.2199,449.9238 370.8917,448.2831 Q369.5792,446.6269 369.5792,443.5019 Q369.5792,440.3769 370.8917,438.7206 Q372.2199,437.0644 374.7199,437.0644 Q375.423,437.0644 376.0636,437.2206 Q376.7199,437.3769 377.2824,437.6738 L377.2824,440.3925 Q376.6574,439.8144 376.0636,439.5488 Q375.4699,439.2675 374.8449,439.2675 Q373.5011,439.2675 372.8136,440.3456 Q372.1261,441.4081 372.1261,443.5019 Q372.1261,445.5956 372.8136,446.6738 Q373.5011,447.7363 374.8449,447.7363 Q375.4699,447.7363 376.0636,447.4706 Q376.6574,447.1894 377.2824,446.6113 L377.2824,449.33 Z " fill="#000000"/><text fill="#000000" font-family="Verdana" font-size="14" lengthAdjust="spacing" textLength="111.9727" x="387.7167" y="448.5361">fs/read_text_file</text><line style="stroke:#000000;stroke-width:1;" x1="356" x2="508.0029" y1="457.6894" y2="457.6894"/><text fill="#000000" font-family="Verdana" font-size="14" lengthAdjust="spacing" textLength="114.1943" x="361" y="474.6845">sessionId: string</text><text fill="#000000" font-family="Verdana" font-size="14" lengthAdjust="spacing" textLength="81.1836" x="361" y="490.9814">path: string</text><text fill="#000000" font-family="Verdana" font-size="14" lengthAdjust="spacing" textLength="60.1152" x="361" y="507.2782">line?: int</text><text fill="#000000" font-family="Verdana" font-size="14" lengthAdjust="spacing" textLength="65.6455" x="361" y="523.5751">limit?: int</text><line style="stroke:#000000;stroke-width:1;" x1="356" x2="508.0029" y1="530.8769" y2="530.8769"/><text fill="#000000" font-family="Verdana" font-size="14" lengthAdjust="spacing" textLength="142.0029" x="361" y="547.872">-&gt; {content: string}</text></g><!--class write--><g class="entity" data-qualified-name="Client Methods.write" data-source-line="87" id="ent0016"><rect fill="#FFFFFF" height="109.1875" rx="2.5" ry="2.5" style="stroke:#000000;stroke-width:1;" width="143.3359" x="567.33" y="437.8394"/><ellipse cx="580.33" cy="451.8394" fill="#FFFFFF" rx="9" ry="9" style="stroke:#000000;stroke-width:1;"/><path d="M583.2988,457.48 Q582.7206,457.7769 582.08,457.9175 Q581.4394,458.0737 580.7363,458.0737 Q578.2363,458.0737 576.9081,456.4331 Q575.5956,454.7769 575.5956,451.6519 Q575.5956,448.5269 576.9081,446.8706 Q578.2363,445.2144 580.7363,445.2144 Q581.4394,445.2144 582.08,445.3706 Q582.7363,445.5269 583.2988,445.8237 L583.2988,448.5425 Q582.6738,447.9644 582.08,447.6987 Q581.4863,447.4175 580.8613,447.4175 Q579.5175,447.4175 578.83,448.4956 Q578.1425,449.5581 578.1425,451.6519 Q578.1425,453.7456 578.83,454.8237 Q579.5175,455.8862 580.8613,455.8862 Q581.4863,455.8862 582.08,455.6206 Q582.6738,455.3394 583.2988,454.7612 L583.2988,457.48 Z " fill="#000000"/><text fill="#000000" font-family="Verdana" font-size="14" lengthAdjust="spacing" textLength="115.3359" x="592.33" y="456.6861">fs/write_text_file</text><line style="stroke:#000000;stroke-width:1;" x1="568.33" x2="709.6659" y1="465.8394" y2="465.8394"/><text fill="#000000" font-family="Verdana" font-size="14" lengthAdjust="spacing" textLength="114.1943" x="573.33" y="482.8345">sessionId: string</text><text fill="#000000" font-family="Verdana" font-size="14" lengthAdjust="spacing" textLength="81.1836" x="573.33" y="499.1314">path: string</text><text fill="#000000" font-family="Verdana" font-size="14" lengthAdjust="spacing" textLength="102.9561" x="573.33" y="515.4282">content: string</text><line style="stroke:#000000;stroke-width:1;" x1="568.33" x2="709.6659" y1="522.73" y2="522.73"/><text fill="#000000" font-family="Verdana" font-size="14" lengthAdjust="spacing" textLength="46.7578" x="573.33" y="539.7251">-&gt; null</text></g><!--class tcreate--><g class="entity" data-qualified-name="Client Methods.tcreate" data-source-line="95" id="ent0017"><rect fill="#FFFFFF" height="125.4844" rx="2.5" ry="2.5" style="stroke:#000000;stroke-width:1;" width="172.1455" x="26.93" y="615.1694"/><ellipse cx="56.1089" cy="629.1694" fill="#FFFFFF" rx="9" ry="9" style="stroke:#000000;stroke-width:1;"/><path d="M59.0777,634.81 Q58.4995,635.1069 57.8589,635.2475 Q57.2183,635.4038 56.5152,635.4038 Q54.0152,635.4038 52.687,633.7631 Q51.3745,632.1069 51.3745,628.9819 Q51.3745,625.8569 52.687,624.2006 Q54.0152,622.5444 56.5152,622.5444 Q57.2183,622.5444 57.8589,622.7006 Q58.5152,622.8569 59.0777,623.1538 L59.0777,625.8725 Q58.4527,625.2944 57.8589,625.0288 Q57.2652,624.7475 56.6402,624.7475 Q55.2964,624.7475 54.6089,625.8256 Q53.9214,626.8881 53.9214,628.9819 Q53.9214,631.0756 54.6089,632.1538 Q55.2964,633.2163 56.6402,633.2163 Q57.2652,633.2163 57.8589,632.9506 Q58.4527,632.6694 59.0777,632.0913 L59.0777,634.81 Z " fill="#000000"/><text fill="#000000" font-family="Verdana" font-size="14" lengthAdjust="spacing" textLength="108.1924" x="71.7042" y="634.0161">terminal/create</text><line style="stroke:#000000;stroke-width:1;" x1="27.93" x2="198.0755" y1="643.1694" y2="643.1694"/><text fill="#000000" font-family="Verdana" font-size="14" lengthAdjust="spacing" textLength="114.1943" x="32.93" y="660.1645">sessionId: string</text><text fill="#000000" font-family="Verdana" font-size="14" lengthAdjust="spacing" textLength="119.2324" x="32.93" y="676.4614">command: string</text><text fill="#000000" font-family="Verdana" font-size="14" lengthAdjust="spacing" textLength="98.2256" x="32.93" y="692.7582">args?: string[]</text><text fill="#000000" font-family="Verdana" font-size="14" lengthAdjust="spacing" textLength="84.8203" x="32.93" y="709.0551">cwd?: string</text><line style="stroke:#000000;stroke-width:1;" x1="27.93" x2="198.0755" y1="716.3569" y2="716.3569"/><text fill="#000000" font-family="Verdana" font-size="14" lengthAdjust="spacing" textLength="160.1455" x="32.93" y="733.352">-&gt; {terminalId: string}</text></g><!--class toutput--><g class="entity" data-qualified-name="Client Methods.toutput" data-source-line="104" id="ent0018"><rect fill="#FFFFFF" height="76.5938" rx="2.5" ry="2.5" style="stroke:#000000;stroke-width:1;" width="261.6006" x="234.2" y="639.6194"/><ellipse cx="306.4397" cy="653.6194" fill="#FFFFFF" rx="9" ry="9" style="stroke:#000000;stroke-width:1;"/><path d="M309.4085,659.26 Q308.8304,659.5569 308.1897,659.6975 Q307.5491,659.8538 306.846,659.8538 Q304.346,659.8538 303.0179,658.2131 Q301.7054,656.5569 301.7054,653.4319 Q301.7054,650.3069 303.0179,648.6506 Q304.346,646.9944 306.846,646.9944 Q307.5491,646.9944 308.1897,647.1506 Q308.846,647.3069 309.4085,647.6038 L309.4085,650.3225 Q308.7835,649.7444 308.1897,649.4788 Q307.596,649.1975 306.971,649.1975 Q305.6272,649.1975 304.9397,650.2756 Q304.2522,651.3381 304.2522,653.4319 Q304.2522,655.5256 304.9397,656.6038 Q305.6272,657.6663 306.971,657.6663 Q307.596,657.6663 308.1897,657.4006 Q308.7835,657.1194 309.4085,656.5413 L309.4085,659.26 Z " fill="#000000"/><text fill="#000000" font-family="Verdana" font-size="14" lengthAdjust="spacing" textLength="109.6211" x="323.9397" y="658.4661">terminal/output</text><line style="stroke:#000000;stroke-width:1;" x1="235.2" x2="494.8006" y1="667.6194" y2="667.6194"/><text fill="#000000" font-family="Verdana" font-size="14" lengthAdjust="spacing" textLength="121.0986" x="240.2" y="684.6145">terminalId: string</text><line style="stroke:#000000;stroke-width:1;" x1="235.2" x2="494.8006" y1="691.9163" y2="691.9163"/><text fill="#000000" font-family="Verdana" font-size="14" lengthAdjust="spacing" textLength="249.6006" x="240.2" y="708.9114">-&gt; {output, truncated, exitStatus?}</text></g><!--class twait--><g class="entity" data-qualified-name="Client Methods.twait" data-source-line="110" id="ent0019"><rect fill="#FFFFFF" height="76.5938" rx="2.5" ry="2.5" style="stroke:#000000;stroke-width:1;" width="180.3799" x="530.81" y="639.6194"/><ellipse cx="543.81" cy="653.6194" fill="#FFFFFF" rx="9" ry="9" style="stroke:#000000;stroke-width:1;"/><path d="M546.7788,659.26 Q546.2006,659.5569 545.56,659.6975 Q544.9194,659.8538 544.2163,659.8538 Q541.7163,659.8538 540.3881,658.2131 Q539.0756,656.5569 539.0756,653.4319 Q539.0756,650.3069 540.3881,648.6506 Q541.7163,646.9944 544.2163,646.9944 Q544.9194,646.9944 545.56,647.1506 Q546.2163,647.3069 546.7788,647.6038 L546.7788,650.3225 Q546.1538,649.7444 545.56,649.4788 Q544.9663,649.1975 544.3413,649.1975 Q542.9975,649.1975 542.31,650.2756 Q541.6225,651.3381 541.6225,653.4319 Q541.6225,655.5256 542.31,656.6038 Q542.9975,657.6663 544.3413,657.6663 Q544.9663,657.6663 545.56,657.4006 Q546.1538,657.1194 546.7788,656.5413 L546.7788,659.26 Z " fill="#000000"/><text fill="#000000" font-family="Verdana" font-size="14" lengthAdjust="spacing" textLength="152.3799" x="555.81" y="658.4661">terminal/wait_for_exit</text><line style="stroke:#000000;stroke-width:1;" x1="531.81" x2="710.1899" y1="667.6194" y2="667.6194"/><text fill="#000000" font-family="Verdana" font-size="14" lengthAdjust="spacing" textLength="121.0986" x="536.81" y="684.6145">terminalId: string</text><line style="stroke:#000000;stroke-width:1;" x1="531.81" x2="710.1899" y1="691.9163" y2="691.9163"/><text fill="#000000" font-family="Verdana" font-size="14" lengthAdjust="spacing" textLength="151.4775" x="536.81" y="708.9114">-&gt; {exitCode, signal}</text></g><!--class tkill--><g class="entity" data-qualified-name="Client Methods.tkill" data-source-line="116" id="ent0020"><rect fill="#FFFFFF" height="76.5938" rx="2.5" ry="2.5" style="stroke:#000000;stroke-width:1;" width="133.0986" x="46.45" y="800.6594"/><ellipse cx="69.2951" cy="814.6594" fill="#FFFFFF" rx="9" ry="9" style="stroke:#000000;stroke-width:1;"/><path d="M72.2638,820.3 Q71.6857,820.5969 71.0451,820.7375 Q70.4044,820.8938 69.7013,820.8938 Q67.2013,820.8938 65.8732,819.2531 Q64.5607,817.5969 64.5607,814.4719 Q64.5607,811.3469 65.8732,809.6906 Q67.2013,808.0344 69.7013,808.0344 Q70.4044,808.0344 71.0451,808.1906 Q71.7013,808.3469 72.2638,808.6438 L72.2638,811.3625 Q71.6388,810.7844 71.0451,810.5188 Q70.4513,810.2375 69.8263,810.2375 Q68.4826,810.2375 67.7951,811.3156 Q67.1076,812.3781 67.1076,814.4719 Q67.1076,816.5656 67.7951,817.6438 Q68.4826,818.7063 69.8263,818.7063 Q70.4513,818.7063 71.0451,818.4406 Q71.6388,818.1594 72.2638,817.5813 L72.2638,820.3 Z " fill="#000000"/><text fill="#000000" font-family="Verdana" font-size="14" lengthAdjust="spacing" textLength="83.2207" x="83.4829" y="819.5061">terminal/kill</text><line style="stroke:#000000;stroke-width:1;" x1="47.45" x2="178.5486" y1="828.6594" y2="828.6594"/><text fill="#000000" font-family="Verdana" font-size="14" lengthAdjust="spacing" textLength="121.0986" x="52.45" y="845.6545">terminalId: string</text><line style="stroke:#000000;stroke-width:1;" x1="47.45" x2="178.5486" y1="852.9563" y2="852.9563"/><text fill="#000000" font-family="Verdana" font-size="14" lengthAdjust="spacing" textLength="46.7578" x="52.45" y="869.9514">-&gt; null</text></g><!--class trelease--><g class="entity" data-qualified-name="Client Methods.trelease" data-source-line="122" id="ent0021"><rect fill="#FFFFFF" height="76.5938" rx="2.5" ry="2.5" style="stroke:#000000;stroke-width:1;" width="142.8027" x="214.6" y="800.6594"/><ellipse cx="227.6" cy="814.6594" fill="#FFFFFF" rx="9" ry="9" style="stroke:#000000;stroke-width:1;"/><path d="M230.5688,820.3 Q229.9906,820.5969 229.35,820.7375 Q228.7094,820.8938 228.0063,820.8938 Q225.5063,820.8938 224.1781,819.2531 Q222.8656,817.5969 222.8656,814.4719 Q222.8656,811.3469 224.1781,809.6906 Q225.5063,808.0344 228.0063,808.0344 Q228.7094,808.0344 229.35,808.1906 Q230.0063,808.3469 230.5688,808.6438 L230.5688,811.3625 Q229.9438,810.7844 229.35,810.5188 Q228.7563,810.2375 228.1313,810.2375 Q226.7875,810.2375 226.1,811.3156 Q225.4125,812.3781 225.4125,814.4719 Q225.4125,816.5656 226.1,817.6438 Q226.7875,818.7063 228.1313,818.7063 Q228.7563,818.7063 229.35,818.4406 Q229.9438,818.1594 230.5688,817.5813 L230.5688,820.3 Z " fill="#000000"/><text fill="#000000" font-family="Verdana" font-size="14" lengthAdjust="spacing" textLength="114.8027" x="239.6" y="819.5061">terminal/release</text><line style="stroke:#000000;stroke-width:1;" x1="215.6" x2="356.4027" y1="828.6594" y2="828.6594"/><text fill="#000000" font-family="Verdana" font-size="14" lengthAdjust="spacing" textLength="121.0986" x="220.6" y="845.6545">terminalId: string</text><line style="stroke:#000000;stroke-width:1;" x1="215.6" x2="356.4027" y1="852.9563" y2="852.9563"/><text fill="#000000" font-family="Verdana" font-size="14" lengthAdjust="spacing" textLength="46.7578" x="220.6" y="869.9514">-&gt; null</text></g><!--class agent_message_text_update--><g class="entity" data-qualified-name="Session Updates .Notifications..agent_message_text_update" data-source-line="130" id="ent0023"><rect fill="#FFFFFF" height="60.2969" rx="2.5" ry="2.5" style="stroke:#000000;stroke-width:1;" width="229.5645" x="767.22" y="462.2794"/><ellipse cx="780.22" cy="476.2794" fill="#FFFFFF" rx="9" ry="9" style="stroke:#000000;stroke-width:1;"/><path d="M783.1888,481.92 Q782.6106,482.2169 781.97,482.3575 Q781.3294,482.5137 780.6263,482.5137 Q778.1263,482.5137 776.7981,480.8731 Q775.4856,479.2169 775.4856,476.0919 Q775.4856,472.9669 776.7981,471.3106 Q778.1263,469.6544 780.6263,469.6544 Q781.3294,469.6544 781.97,469.8106 Q782.6263,469.9669 783.1888,470.2637 L783.1888,472.9825 Q782.5638,472.4044 781.97,472.1387 Q781.3763,471.8575 780.7513,471.8575 Q779.4075,471.8575 778.72,472.9356 Q778.0325,473.9981 778.0325,476.0919 Q778.0325,478.1856 778.72,479.2637 Q779.4075,480.3262 780.7513,480.3262 Q781.3763,480.3262 781.97,480.0606 Q782.5638,479.7794 783.1888,479.2012 L783.1888,481.92 Z " fill="#000000"/><text fill="#000000" font-family="Verdana" font-size="14" lengthAdjust="spacing" textLength="201.5645" x="792.22" y="481.1261">agent_message_text_update</text><line style="stroke:#000000;stroke-width:1;" x1="768.22" x2="995.7845" y1="490.2794" y2="490.2794"/><text fill="#000000" font-family="Verdana" font-size="14" lengthAdjust="spacing" textLength="77.2324" x="773.22" y="507.2745">text: string</text><line style="stroke:#000000;stroke-width:1;" x1="768.22" x2="995.7845" y1="514.5763" y2="514.5763"/></g><!--class agent_thought_text_update--><g class="entity" data-qualified-name="Session Updates .Notifications..agent_thought_text_update" data-source-line="134" id="ent0024"><rect fill="#FFFFFF" height="60.2969" rx="2.5" ry="2.5" style="stroke:#000000;stroke-width:1;" width="221.6963" x="1032.15" y="462.2794"/><ellipse cx="1045.15" cy="476.2794" fill="#FFFFFF" rx="9" ry="9" style="stroke:#000000;stroke-width:1;"/><path d="M1048.1188,481.92 Q1047.5406,482.2169 1046.9,482.3575 Q1046.2594,482.5137 1045.5563,482.5137 Q1043.0563,482.5137 1041.7281,480.8731 Q1040.4156,479.2169 1040.4156,476.0919 Q1040.4156,472.9669 1041.7281,471.3106 Q1043.0563,469.6544 1045.5563,469.6544 Q1046.2594,469.6544 1046.9,469.8106 Q1047.5563,469.9669 1048.1188,470.2637 L1048.1188,472.9825 Q1047.4938,472.4044 1046.9,472.1387 Q1046.3063,471.8575 1045.6813,471.8575 Q1044.3375,471.8575 1043.65,472.9356 Q1042.9625,473.9981 1042.9625,476.0919 Q1042.9625,478.1856 1043.65,479.2637 Q1044.3375,480.3262 1045.6813,480.3262 Q1046.3063,480.3262 1046.9,480.0606 Q1047.4938,479.7794 1048.1188,479.2012 L1048.1188,481.92 Z " fill="#000000"/><text fill="#000000" font-family="Verdana" font-size="14" lengthAdjust="spacing" textLength="193.6963" x="1057.15" y="481.1261">agent_thought_text_update</text><line style="stroke:#000000;stroke-width:1;" x1="1033.15" x2="1252.8463" y1="490.2794" y2="490.2794"/><text fill="#000000" font-family="Verdana" font-size="14" lengthAdjust="spacing" textLength="77.2324" x="1038.15" y="507.2745">text: string</text><line style="stroke:#000000;stroke-width:1;" x1="1033.15" x2="1252.8463" y1="514.5763" y2="514.5763"/></g><!--class tool_call_update--><g class="entity" data-qualified-name="Session Updates .Notifications..tool_call_update" data-source-line="138" id="ent0025"><rect fill="#FFFFFF" height="125.4844" rx="2.5" ry="2.5" style="stroke:#000000;stroke-width:1;" width="186.665" x="1288.67" y="429.6894"/><ellipse cx="1321.8172" cy="443.6894" fill="#FFFFFF" rx="9" ry="9" style="stroke:#000000;stroke-width:1;"/><path d="M1324.7859,449.33 Q1324.2078,449.6269 1323.5672,449.7675 Q1322.9265,449.9238 1322.2234,449.9238 Q1319.7234,449.9238 1318.3953,448.2831 Q1317.0828,446.6269 1317.0828,443.5019 Q1317.0828,440.3769 1318.3953,438.7206 Q1319.7234,437.0644 1322.2234,437.0644 Q1322.9265,437.0644 1323.5672,437.2206 Q1324.2234,437.3769 1324.7859,437.6738 L1324.7859,440.3925 Q1324.1609,439.8144 1323.5672,439.5488 Q1322.9734,439.2675 1322.3484,439.2675 Q1321.0047,439.2675 1320.3172,440.3456 Q1319.6297,441.4081 1319.6297,443.5019 Q1319.6297,445.5956 1320.3172,446.6738 Q1321.0047,447.7363 1322.3484,447.7363 Q1322.9734,447.7363 1323.5672,447.4706 Q1324.1609,447.1894 1324.7859,446.6113 L1324.7859,449.33 Z " fill="#000000"/><text fill="#000000" font-family="Verdana" font-size="14" lengthAdjust="spacing" textLength="113.8936" x="1338.2943" y="448.5361">tool_call_update</text><line style="stroke:#000000;stroke-width:1;" x1="1289.67" x2="1474.335" y1="457.6894" y2="457.6894"/><text fill="#000000" font-family="Verdana" font-size="14" lengthAdjust="spacing" textLength="115.0146" x="1294.67" y="474.6845">toolCallId: string</text><text fill="#000000" font-family="Verdana" font-size="14" lengthAdjust="spacing" textLength="84.1572" x="1294.67" y="490.9814">title?: string</text><text fill="#000000" font-family="Verdana" font-size="14" lengthAdjust="spacing" textLength="86.543" x="1294.67" y="507.2782">kind?: string</text><text fill="#000000" font-family="Verdana" font-size="14" lengthAdjust="spacing" textLength="99.8047" x="1294.67" y="523.5751">status?: string</text><text fill="#000000" font-family="Verdana" font-size="14" lengthAdjust="spacing" textLength="174.665" x="1294.67" y="539.872">content?: ContentBlock[]</text><line style="stroke:#000000;stroke-width:1;" x1="1289.67" x2="1474.335" y1="547.1737" y2="547.1737"/></g><!--class plan--><g class="entity" data-qualified-name="Session Updates .Notifications..plan" data-source-line="146" id="ent0026"><rect fill="#FFFFFF" height="60.2969" rx="2.5" ry="2.5" style="stroke:#000000;stroke-width:1;" width="147.6523" x="808.17" y="647.7694"/><ellipse cx="863.1319" cy="661.7694" fill="#FFFFFF" rx="9" ry="9" style="stroke:#000000;stroke-width:1;"/><path d="M866.1007,667.41 Q865.5225,667.7069 864.8819,667.8475 Q864.2413,668.0038 863.5382,668.0038 Q861.0382,668.0038 859.71,666.3631 Q858.3975,664.7069 858.3975,661.5819 Q858.3975,658.4569 859.71,656.8006 Q861.0382,655.1444 863.5382,655.1444 Q864.2413,655.1444 864.8819,655.3006 Q865.5382,655.4569 866.1007,655.7538 L866.1007,658.4725 Q865.4757,657.8944 864.8819,657.6288 Q864.2882,657.3475 863.6632,657.3475 Q862.3194,657.3475 861.6319,658.4256 Q860.9444,659.4881 860.9444,661.5819 Q860.9444,663.6756 861.6319,664.7538 Q862.3194,665.8163 863.6632,665.8163 Q864.2882,665.8163 864.8819,665.5506 Q865.4757,665.2694 866.1007,664.6913 L866.1007,667.41 Z " fill="#000000"/><text fill="#000000" font-family="Verdana" font-size="14" lengthAdjust="spacing" textLength="30.2285" x="880.6319" y="666.6161">plan</text><line style="stroke:#000000;stroke-width:1;" x1="809.17" x2="954.8223" y1="675.7694" y2="675.7694"/><text fill="#000000" font-family="Verdana" font-size="14" lengthAdjust="spacing" textLength="135.6523" x="814.17" y="692.7645">entries: PlanEntry[]</text><line style="stroke:#000000;stroke-width:1;" x1="809.17" x2="954.8223" y1="700.0663" y2="700.0663"/></g><!--class current_mode_update--><g class="entity" data-qualified-name="Session Updates .Notifications..current_mode_update" data-source-line="150" id="ent0027"><rect fill="#FFFFFF" height="60.2969" rx="2.5" ry="2.5" style="stroke:#000000;stroke-width:1;" width="182.0889" x="990.96" y="647.7694"/><ellipse cx="1003.96" cy="661.7694" fill="#FFFFFF" rx="9" ry="9" style="stroke:#000000;stroke-width:1;"/><path d="M1006.9288,667.41 Q1006.3506,667.7069 1005.71,667.8475 Q1005.0694,668.0038 1004.3663,668.0038 Q1001.8663,668.0038 1000.5381,666.3631 Q999.2256,664.7069 999.2256,661.5819 Q999.2256,658.4569 1000.5381,656.8006 Q1001.8663,655.1444 1004.3663,655.1444 Q1005.0694,655.1444 1005.71,655.3006 Q1006.3663,655.4569 1006.9288,655.7538 L1006.9288,658.4725 Q1006.3038,657.8944 1005.71,657.6288 Q1005.1163,657.3475 1004.4913,657.3475 Q1003.1475,657.3475 1002.46,658.4256 Q1001.7725,659.4881 1001.7725,661.5819 Q1001.7725,663.6756 1002.46,664.7538 Q1003.1475,665.8163 1004.4913,665.8163 Q1005.1163,665.8163 1005.71,665.5506 Q1006.3038,665.2694 1006.9288,664.6913 L1006.9288,667.41 Z " fill="#000000"/><text fill="#000000" font-family="Verdana" font-size="14" lengthAdjust="spacing" textLength="154.0889" x="1015.96" y="666.6161">current_mode_update</text><line style="stroke:#000000;stroke-width:1;" x1="991.96" x2="1172.0489" y1="675.7694" y2="675.7694"/><text fill="#000000" font-family="Verdana" font-size="14" lengthAdjust="spacing" textLength="102.0742" x="996.96" y="692.7645">modeId: string</text><line style="stroke:#000000;stroke-width:1;" x1="991.96" x2="1172.0489" y1="700.0663" y2="700.0663"/></g><!--class available_commands_update--><g class="entity" data-qualified-name="Session Updates .Notifications..available_commands_update" data-source-line="154" id="ent0028"><rect fill="#FFFFFF" height="60.2969" rx="2.5" ry="2.5" style="stroke:#000000;stroke-width:1;" width="245.4063" x="1208.3" y="647.7694"/><ellipse cx="1227.4721" cy="661.7694" fill="#FFFFFF" rx="9" ry="9" style="stroke:#000000;stroke-width:1;"/><path d="M1230.4409,667.41 Q1229.8627,667.7069 1229.2221,667.8475 Q1228.5815,668.0038 1227.8784,668.0038 Q1225.3784,668.0038 1224.0502,666.3631 Q1222.7377,664.7069 1222.7377,661.5819 Q1222.7377,658.4569 1224.0502,656.8006 Q1225.3784,655.1444 1227.8784,655.1444 Q1228.5815,655.1444 1229.2221,655.3006 Q1229.8784,655.4569 1230.4409,655.7538 L1230.4409,658.4725 Q1229.8159,657.8944 1229.2221,657.6288 Q1228.6284,657.3475 1228.0034,657.3475 Q1226.6596,657.3475 1225.9721,658.4256 Q1225.2846,659.4881 1225.2846,661.5819 Q1225.2846,663.6756 1225.9721,664.7538 Q1226.6596,665.8163 1228.0034,665.8163 Q1228.6284,665.8163 1229.2221,665.5506 Q1229.8159,665.2694 1230.4409,664.6913 L1230.4409,667.41 Z " fill="#000000"/><text fill="#000000" font-family="Verdana" font-size="14" lengthAdjust="spacing" textLength="203.6904" x="1240.8437" y="666.6161">available_commands_update</text><line style="stroke:#000000;stroke-width:1;" x1="1209.3" x2="1452.7063" y1="675.7694" y2="675.7694"/><text fill="#000000" font-family="Verdana" font-size="14" lengthAdjust="spacing" textLength="233.4063" x="1214.3" y="692.7645">commands: AvailableCommand[]</text><line style="stroke:#000000;stroke-width:1;" x1="1209.3" x2="1452.7063" y1="700.0663" y2="700.0663"/></g><?plantuml-src bLPBRnen4BxpArnEYPGeFNCeegW7f2P5eUsbgbR6Eu2BrzxQio5fn7_l-07iBk_JslFwFdiUtW-uW09OgRZK7RUKkkIM5qmexjm0qSffXJ0IHa_aFs0VEnsKg80DXcCsjWQDC8hTiqTmZi-1VNyhmR5dc845BQ3JARbOUaLtC0UDP8SBapjsO-5l9Itajrtstc4HZdMbbYYv8gGkuuxvRL0pLYQids2TDBf7EWmAeIG57lAIJwKYRt0zPgP_GDJL8pqpFJOgIaLdrSYHGWJr_NtyV6AZBVGpkD9e1wHPTtRS71sHt1uqh08v-YPkOfNtcAEhqlEmBqGv0Vj2JFizngtbRosi9rXDOhGpM7JgeiG05vS9CUb7JTneqcD3ev5E-LaPiVprkuKz3aODtFNnD9dINnLNpJHjw2d3yq3EBqvIk_gAlbB4o-v8IHTlo2-EP4HKrXdRRyXgMEIOiDmPC0UO5IQFvUaN9q_j3LgY7Ue4y97q5mAgBQ8w2wdEOQepwNyoA6TIX3Pn1pClE7Ltv1IN9qab0ZVQC9kGR_UWXw5JDwLt4DKF3N2ObM0B6KInDMXx4X-DKKEkL6ConDAcQJ7UHliMHFijipKuagoP8seypn1UCPj95Sl3YqxtAyT5Gw2aXlvkj2bPIApjTupUHMpnZVTwdz3AIeGMeo2xZb8BgCL3LqgreD5V5asC1q7dnuYBSNrwGfYYuBefutRkjasRqaAjVQoFtpVOkz3hO-nCXMKLvmR6TMAt7wED4itl6DfAKuz0ViVWLUA4dfNAzOyYhhYaL1YRUUC8x4KNmtgt8JNl7NDoJfP7WPPInSv4lxeq_gbKMb30NSfbsbmTjzxhQTgo7sLE5qZlJ6FYD1uRxYTILiJ_YrZFLV3Q4dYjLsUDV_IaQLBD5tYLfvyNcQ21qN98OwGzNVmFKRCcwJUgLQKkLiUXtkeVUB5hPEZFJ2S2P6B33ywOP5zeyzOsfeVEXlkYGccIttkBwZVrmgNYKmLPwaBNzDr8UsomiHn6KS9V_mS0?></g></svg>